<svg data-v-0dd9719b="" version="1.0" xmlns="http://www.w3.org/2000/svg" xmlns:xlink="http://www.w3.org/1999/xlink" width="100%" height="100%" viewBox="0 0 340.000000 250.000000" preserveAspectRatio="xMidYMid meet" color-interpolation-filters="sRGB" style="margin: auto;"> <rect data-v-0dd9719b="" x="0" y="0" width="100%" height="100%" fill="#fff" fill-opacity="1" class="background"></rect> <rect data-v-0dd9719b="" x="0" y="0" width="100%" height="100%" fill="url(#watermark)" fill-opacity="1" class="watermarklayer"></rect> <g data-v-0dd9719b="" fill="#fc0302" class="icon-text-wrapper icon-svg-group iconsvg" transform="translate(48.779998779296875,92.96548843383789)"><g class="iconsvg-imagesvg" transform="translate(0,0)"><g><rect fill="#fc0302" fill-opacity="0" stroke-width="2" x="0" y="0" width="60" height="64.06902369486059" class="image-rect"></rect> <svg x="0" y="0" width="60" height="64.06902369486059" filtersec="colorsb5919531639" class="image-svg-svg primary" style="overflow: visible;"><svg xmlns="http://www.w3.org/2000/svg" viewBox="-0.011667728424072266 -0.08347146958112717 15.623819351196289 16.683469772338867"><defs><clipPath id="aec97895a-9654-4a78-970e-2f4532f51c24"><path d="M14.06 2.26a2.66 2.66 0 0 0-2.2-1.18H3.14A2.66 2.66 0 0 0 1.69 6a2.7 2.7 0 0 0 1.48.44h2.67a.57.57 0 0 1 .32.1.58.58 0 0 1 .25.46 1 1 0 0 0 0 .2v7.9a1 1 0 1 0 2.08 0V7a1 1 0 0 0 0-.26 2.66 2.66 0 0 0-2.67-2.43H3.16a.63.63 0 0 1-.32-.1.58.58 0 0 1 .33-1.05h8.68a.57.57 0 0 1 .32 1.05.57.57 0 0 1-.32.1 1 1 0 0 0 0 2.08 2.66 2.66 0 0 0 2.21-4.13z" fill="none"></path></clipPath></defs><g><g><g clip-path="url(#aec97895a-9654-4a78-970e-2f4532f51c24)"><ellipse cx="7.5" cy="16.04" rx="1.89" ry=".56" fill="#fc0302"></ellipse><ellipse cx="7.5" cy="15.99" rx="1.89" ry=".56" fill="#fc0402"></ellipse><ellipse cx="7.5" cy="15.93" rx="1.89" ry=".56" fill="#fc0502"></ellipse><ellipse cx="7.5" cy="15.88" rx="1.89" ry=".56" fill="#fc0602"></ellipse><ellipse cx="7.5" cy="15.83" rx="1.89" ry=".56" fill="#fc0702"></ellipse><ellipse cx="7.5" cy="15.77" rx="1.89" ry=".56" fill="#fc0802"></ellipse><ellipse cx="7.5" cy="15.72" rx="1.89" ry=".56" fill="#fc0902"></ellipse><ellipse cx="7.5" cy="15.66" rx="1.89" ry=".56" fill="#fc0902"></ellipse><ellipse cx="7.5" cy="15.61" rx="1.89" ry=".56" fill="#fc0a02"></ellipse><ellipse cx="7.5" cy="15.56" rx="1.89" ry=".56" fill="#fc0b02"></ellipse><ellipse cx="7.5" cy="15.5" rx="1.89" ry=".56" fill="#fc0c02"></ellipse><ellipse cx="7.5" cy="15.45" rx="1.89" ry=".56" fill="#fc0d02"></ellipse><ellipse cx="7.5" cy="15.39" rx="1.89" ry=".56" fill="#fc0e02"></ellipse><ellipse cx="7.5" cy="15.34" rx="1.89" ry=".56" fill="#fc0f02"></ellipse><ellipse cx="7.5" cy="15.29" rx="1.89" ry=".56" fill="#fc1002"></ellipse><ellipse cx="7.5" cy="15.23" rx="1.89" ry=".56" fill="#fc1102"></ellipse><ellipse cx="7.5" cy="15.18" rx="1.89" ry=".56" fill="#fc1202"></ellipse><ellipse cx="7.5" cy="15.13" rx="1.89" ry=".56" fill="#fc1303"></ellipse><ellipse cx="7.5" cy="15.07" rx="1.89" ry=".56" fill="#fc1403"></ellipse><ellipse cx="7.5" cy="15.02" rx="1.89" ry=".56" fill="#fc1503"></ellipse><ellipse cx="7.5" cy="14.97" rx="1.89" ry=".56" fill="#fc1603"></ellipse><ellipse cx="7.5" cy="14.91" rx="1.89" ry=".56" fill="#fc1603"></ellipse><ellipse cx="7.5" cy="14.86" rx="1.89" ry=".56" fill="#fc1703"></ellipse><ellipse cx="7.5" cy="14.8" rx="1.89" ry=".56" fill="#fc1803"></ellipse><ellipse cx="7.5" cy="14.75" rx="1.89" ry=".56" fill="#fc1903"></ellipse><ellipse cx="7.5" cy="14.7" rx="1.89" ry=".56" fill="#fc1a03"></ellipse><ellipse cx="7.5" cy="14.64" rx="1.89" ry=".56" fill="#fc1b03"></ellipse><ellipse cx="7.5" cy="14.59" rx="1.89" ry=".56" fill="#fc1c03"></ellipse><ellipse cx="7.5" cy="14.54" rx="1.89" ry=".56" fill="#fc1d03"></ellipse><ellipse cx="7.5" cy="14.48" rx="1.89" ry=".56" fill="#fc1e03"></ellipse><ellipse cx="7.5" cy="14.43" rx="1.89" ry=".56" fill="#fc1f03"></ellipse><ellipse cx="7.5" cy="14.37" rx="1.89" ry=".56" fill="#fc2003"></ellipse><ellipse cx="7.5" cy="14.32" rx="1.89" ry=".56" fill="#fc2103"></ellipse><ellipse cx="7.5" cy="14.27" rx="1.89" ry=".56" fill="#fc2203"></ellipse><ellipse cx="7.5" cy="14.21" rx="1.89" ry=".56" fill="#fc2203"></ellipse><ellipse cx="7.5" cy="14.16" rx="1.89" ry=".56" fill="#fc2303"></ellipse><ellipse cx="7.5" cy="14.11" rx="1.89" ry=".56" fill="#fc2403"></ellipse><ellipse cx="7.5" cy="14.05" rx="1.89" ry=".56" fill="#fc2503"></ellipse><ellipse cx="7.5" cy="14" rx="1.89" ry=".56" fill="#fc2603"></ellipse><ellipse cx="7.5" cy="13.95" rx="1.89" ry=".56" fill="#fc2703"></ellipse><ellipse cx="7.5" cy="13.89" rx="1.89" ry=".56" fill="#fc2803"></ellipse><ellipse cx="7.5" cy="13.84" rx="1.89" ry=".56" fill="#fc2903"></ellipse><ellipse cx="7.5" cy="13.78" rx="1.89" ry=".56" fill="#fc2a03"></ellipse><ellipse cx="7.5" cy="13.73" rx="1.89" ry=".56" fill="#fc2b03"></ellipse><ellipse cx="7.5" cy="13.68" rx="1.89" ry=".56" fill="#fc2c03"></ellipse><ellipse cx="7.5" cy="13.62" rx="1.89" ry=".56" fill="#fc2d03"></ellipse><ellipse cx="7.5" cy="13.57" rx="1.89" ry=".56" fill="#fc2e03"></ellipse><ellipse cx="7.5" cy="13.52" rx="1.89" ry=".56" fill="#fc2e03"></ellipse><ellipse cx="7.5" cy="13.46" rx="1.89" ry=".56" fill="#fc2f03"></ellipse><ellipse cx="7.5" cy="13.41" rx="1.89" ry=".56" fill="#fc3003"></ellipse><ellipse cx="7.5" cy="13.35" rx="1.89" ry=".56" fill="#fc3103"></ellipse><ellipse cx="7.5" cy="13.3" rx="1.89" ry=".56" fill="#fc3204"></ellipse><ellipse cx="7.5" cy="13.25" rx="1.89" ry=".56" fill="#fc3304"></ellipse><ellipse cx="7.5" cy="13.19" rx="1.89" ry=".56" fill="#fc3404"></ellipse><ellipse cx="7.5" cy="13.14" rx="1.89" ry=".56" fill="#fc3504"></ellipse><ellipse cx="7.5" cy="13.09" rx="1.89" ry=".56" fill="#fc3604"></ellipse><ellipse cx="7.5" cy="13.03" rx="1.89" ry=".56" fill="#fc3704"></ellipse><ellipse cx="7.5" cy="12.98" rx="1.89" ry=".56" fill="#fc3804"></ellipse><ellipse cx="7.5" cy="12.92" rx="1.89" ry=".56" fill="#fc3904"></ellipse><ellipse cx="7.5" cy="12.87" rx="1.89" ry=".56" fill="#fc3a04"></ellipse><ellipse cx="7.5" cy="12.82" rx="1.89" ry=".56" fill="#fc3b04"></ellipse><ellipse cx="7.5" cy="12.76" rx="1.89" ry=".56" fill="#fc3b04"></ellipse><ellipse cx="7.5" cy="12.71" rx="1.89" ry=".56" fill="#fc3c04"></ellipse><ellipse cx="7.5" cy="12.66" rx="1.89" ry=".56" fill="#fc3d04"></ellipse><ellipse cx="7.5" cy="12.6" rx="1.89" ry=".56" fill="#fc3e04"></ellipse><ellipse cx="7.5" cy="12.55" rx="1.89" ry=".56" fill="#fc3f04"></ellipse><ellipse cx="7.5" cy="12.5" rx="1.89" ry=".56" fill="#fc4004"></ellipse><ellipse cx="7.5" cy="12.44" rx="1.89" ry=".56" fill="#fc4104"></ellipse><ellipse cx="7.5" cy="12.38" rx="1.89" ry=".57" fill="#fc4304"></ellipse><path d="M9.38 12.31c0-.3-.85-.57-1.89-.57s-1.89.26-1.89.57.84.56 1.89.56 1.91-.27 1.89-.56z" fill="#fc4505"></path><path d="M9.37 12.25c0-.29-.85-.56-1.89-.56s-1.89.25-1.89.56.84.56 1.89.56 1.92-.29 1.89-.56z" fill="#fc4705"></path><path d="M9.37 12.18c0-.28-.85-.56-1.89-.56s-1.89.25-1.89.56.84.56 1.89.56 1.92-.29 1.89-.56z" fill="#fc4905"></path><path d="M9.36 12.12c0-.27-.85-.57-1.89-.57s-1.89.25-1.89.57.84.56 1.89.56 1.93-.31 1.89-.56z" fill="#fc4b05"></path><path d="M9.36 12.06c-.05-.27-.85-.57-1.89-.57s-1.89.25-1.89.57.84.56 1.89.56 1.94-.32 1.89-.56z" fill="#fc4d06"></path><path d="M9.35 12c-.06-.26-.85-.57-1.89-.57s-1.89.25-1.89.57.84.56 1.89.56 1.95-.34 1.89-.56z" fill="#fc4f06"></path><path d="M9.35 11.93c-.07-.25-.85-.56-1.89-.56s-1.89.25-1.89.56.84.56 1.89.56 1.95-.34 1.89-.56z" fill="#fc5106"></path><path d="M9.34 11.86c0-.25-.85-.56-1.89-.56s-1.89.25-1.89.56.84.56 1.89.56 2-.36 1.89-.56z" fill="#fc5306"></path><path d="M9.34 11.8c0-.24-.85-.57-1.89-.57s-1.89.25-1.89.57.84.57 1.89.57 2.01-.37 1.89-.57z" fill="#fc5507"></path><path d="M9.33 11.74c0-.23-.85-.57-1.89-.57s-1.89.25-1.89.57.84.56 1.89.56 2.02-.39 1.89-.56z" fill="#fc5707"></path><path d="M9.33 11.67c0-.22-.85-.57-1.89-.57s-1.89.25-1.89.57.84.56 1.89.56 2.03-.4 1.89-.56z" fill="#fc5a07"></path><path d="M9.32 11.61c0-.22-.85-.56-1.89-.56s-1.89.25-1.89.56.84.56 1.89.56 2.05-.42 1.89-.56z" fill="#fc5c07"></path><path d="M9.32 11.55c-.05-.21-.85-.57-1.89-.57s-1.89.25-1.89.57.84.56 1.89.56 2.06-.44 1.89-.56z" fill="#fc5e08"></path><path d="M9.31 11.48a2.53 2.53 0 0 0-1.89-.57c-1 0-1.89.25-1.89.57s.84.56 1.89.56 2.07-.44 1.89-.56z" fill="#fc6008"></path><path d="M9.31 11.42a2.56 2.56 0 0 0-1.89-.57c-1 0-1.89.25-1.89.57s.84.56 1.89.56 2.08-.46 1.89-.56z" fill="#fc6208"></path><path d="M9.3 11.35a2.61 2.61 0 0 0-1.89-.56c-1 0-1.89.25-1.89.56s.84.56 1.89.56 2.1-.47 1.89-.56z" fill="#fc6409"></path><path d="M9.3 11.29a2.65 2.65 0 0 0-1.89-.56c-1 0-1.89.25-1.89.56s.84.56 1.89.56 2.1-.48 1.89-.56z" fill="#fc6609"></path><path d="M9.29 11.22a2.7 2.7 0 0 0-1.89-.57c-1 0-1.89.25-1.89.57s.84.56 1.89.56 2.12-.49 1.89-.56z" fill="#fc6809"></path><path d="M9.29 11.16a2.74 2.74 0 0 0-1.89-.57c-1 0-1.89.25-1.89.57s.84.56 1.89.56 2.13-.51 1.89-.56z" fill="#fc6a09"></path><path d="M9.28 11.1a2.79 2.79 0 0 0-1.89-.57c-1 0-1.89.25-1.89.57s.84.56 1.89.56 2.14-.53 1.89-.56z" fill="#fc6c0a"></path><path d="M9.28 11a2.85 2.85 0 0 0-1.89-.56c-1 0-1.89.25-1.89.56s.84.56 1.89.56 2.15-.5 1.89-.56z" fill="#fc6e0a"></path><path d="M9.27 11a2.89 2.89 0 0 0-1.89-.57c-1 0-1.89.25-1.89.57s.84.56 1.89.56S9.55 11 9.27 11z" fill="#fc700a"></path><path d="M9.27 10.9a3 3 0 0 0-1.89-.57c-1 0-1.89.25-1.89.57s.84.56 1.89.56 2.17-.56 1.89-.56z" fill="#fc720a"></path><path d="M9.26 10.84a3 3 0 0 0-1.89-.57c-1 0-1.89.25-1.89.57s.84.56 1.89.56 2.19-.57 1.89-.56z" fill="#fc740b"></path><path d="M9.26 10.78a3.07 3.07 0 0 0-1.89-.57c-1 0-1.89.25-1.89.57s.84.56 1.89.56 2.2-.59 1.89-.56z" fill="#fc760b"></path><path d="M9.25 10.71a3.14 3.14 0 0 0-1.89-.56c-1 0-1.89.25-1.89.56s.84.56 1.89.56 2.21-.6 1.89-.56z" fill="#fc780b"></path><path d="M9.25 10.65a3.21 3.21 0 0 0-1.89-.56c-1 0-1.89.25-1.89.56s.85.56 1.89.56 2.22-.62 1.89-.56z" fill="#fc7a0c"></path><path d="M9.24 10.58A3.27 3.27 0 0 0 7.35 10c-1 0-1.89.25-1.89.56s.84.56 1.89.56 2.24-.6 1.89-.54z" fill="#fc7c0c"></path><path d="M9.23 10.52A3.34 3.34 0 0 0 7.35 10c-1 0-1.89.25-1.89.57s.84.56 1.89.56 2.24-.69 1.88-.61z" fill="#fc7e0c"></path><path d="M9.23 10.46a3.41 3.41 0 0 0-1.89-.56c-1 0-1.89.25-1.89.56s.85.54 1.89.54 2.26-.64 1.89-.54z" fill="#fc800c"></path><path d="M9.22 10.39a3.51 3.51 0 0 0-1.89-.56c-1 0-1.89.25-1.89.56s.85.56 1.89.56 2.28-.66 1.89-.56z" fill="#fc820d"></path><path d="M9.22 10.33a3.57 3.57 0 0 0-1.89-.57c-1 0-1.89.25-1.89.57s.84.56 1.89.56 2.28-.68 1.89-.56z" fill="#fc840d"></path><path d="M9.21 10.26a3.67 3.67 0 0 0-1.88-.56c-1 0-1.89.25-1.89.56s.85.56 1.89.56 2.29-.69 1.88-.56z" fill="#fd870d"></path><path d="M9.21 10.2a3.75 3.75 0 0 0-1.89-.57c-1 0-1.89.25-1.89.57s.84.56 1.89.56 2.31-.71 1.89-.56z" fill="#fd890d"></path><path d="M9.2 10.14a3.86 3.86 0 0 0-1.89-.56c-1 0-1.89.25-1.89.56s.84.56 1.89.56a3.43 3.43 0 0 0 1.89-.56z" fill="#fd8b0e"></path><path d="M9.2 10.07a4 4 0 0 0-1.89-.56c-1 0-1.89.25-1.89.56s.84.57 1.89.57a3.5 3.5 0 0 0 1.89-.57z" fill="#fd8d0e"></path><path d="M9.19 10a4.07 4.07 0 0 0-1.89-.56c-1 0-1.89.25-1.89.57s.84.56 1.89.56A3.6 3.6 0 0 0 9.19 10z" fill="#fd8f0e"></path><path d="M9.19 9.94a4.19 4.19 0 0 0-1.89-.56c-1 0-1.89.25-1.89.56s.84.57 1.89.57a3.68 3.68 0 0 0 1.89-.57z" fill="#fd910e"></path><path d="M9.18 9.88a4.3 4.3 0 0 0-1.89-.56c-1 0-1.89.25-1.89.56s.85.56 1.89.56a3.8 3.8 0 0 0 1.89-.56z" fill="#fd930f"></path><path d="M9.18 9.82a4.45 4.45 0 0 0-1.89-.56c-1 0-1.89.25-1.89.56s.84.56 1.89.56a3.91 3.91 0 0 0 1.89-.56z" fill="#fd950f"></path><path d="M9.17 9.75a4.58 4.58 0 0 0-1.89-.57c-1 0-1.89.25-1.89.57s.84.56 1.89.56a4.05 4.05 0 0 0 1.89-.56z" fill="#fd970f"></path><path d="M9.17 9.69a4.73 4.73 0 0 0-1.89-.56c-1 0-1.89.25-1.89.56s.84.56 1.89.56a4.15 4.15 0 0 0 1.89-.56z" fill="#fd9910"></path><path d="M9.16 9.62a4.9 4.9 0 0 0-1.89-.56c-1 0-1.89.25-1.89.56s.84.57 1.89.57a4.27 4.27 0 0 0 1.89-.57z" fill="#fd9b10"></path><path d="M9.16 9.56A5.06 5.06 0 0 0 7.27 9c-1 0-1.89.25-1.89.56s.84.56 1.89.56a4.47 4.47 0 0 0 1.89-.56z" fill="#fd9d10"></path><path d="M9.15 9.5a5.91 5.91 0 0 0-1.89-.56c-1 0-1.89.25-1.89.56s.84.56 1.89.56 2.48-.76 1.89-.56z" fill="#fd9f10"></path><path d="M9.15 9.43c-.17.06-.85-.56-1.89-.56s-1.89.25-1.89.56.84.57 1.89.57 2.49-.78 1.89-.57z" fill="#fda111"></path><path d="M9.14 9.37c-.14.06-.85-.57-1.89-.57s-1.89.25-1.89.56.85.56 1.89.56 2.51-.78 1.89-.55z" fill="#fda311"></path><path d="M9.14 9.3c-.18.07-.85-.57-1.89-.57S5.36 9 5.36 9.3s.84.56 1.89.56 2.51-.81 1.89-.56z" fill="#fda511"></path><path d="M9.13 9.24c-.18.08-.85-.56-1.89-.56s-1.89.25-1.89.56.85.56 1.89.56 2.53-.8 1.89-.56z" fill="#fda711"></path><path d="M9.13 9.18c-.19.08-.85-.56-1.89-.56s-1.89.25-1.89.56.85.56 1.89.56 2.53-.85 1.89-.56z" fill="#fda912"></path><path d="M9.12 9.11c-.19.09-.85-.57-1.89-.57s-1.89.25-1.89.57.84.56 1.89.56a3.9 3.9 0 0 0 1.89-.56z" fill="#fdab12"></path><path d="M9.12 9c-.19.09-.85-.56-1.89-.56s-1.89.3-1.89.56.85.56 1.89.56A4.16 4.16 0 0 0 9.12 9z" fill="#fdad12"></path><path d="M9.11 9c-.2.1-.85-.56-1.89-.56s-1.89.23-1.89.56.85.56 1.89.56A4.46 4.46 0 0 0 9.11 9z" fill="#fdaf13"></path><path d="M9.1 8.92c-.2.11-.85-.56-1.89-.56s-1.89.25-1.89.56.84.56 1.89.56a4.79 4.79 0 0 0 1.89-.56z" fill="#fdb113"></path><path d="M9.1 8.85c-.21.11-.85-.56-1.89-.56s-1.89.25-1.89.56.85.56 1.89.56a5.18 5.18 0 0 0 1.89-.56z" fill="#fdb413"></path><path d="M9.09 8.79c-.21.12-.85-.56-1.89-.56s-1.89.25-1.89.56.84.56 1.89.56a5.69 5.69 0 0 0 1.89-.56z" fill="#fdb613"></path><path d="M9.09 8.73c-.22.12-.85-.56-1.89-.56s-1.89.25-1.89.56.85.57 1.89.57a6.29 6.29 0 0 0 1.89-.57z" fill="#fdb814"></path><path d="M9.08 8.66c-.22.13-.85-.56-1.89-.56s-1.89.25-1.89.56.84.56 1.89.56a7.07 7.07 0 0 0 1.89-.56z" fill="#fdba14"></path><path d="M9.08 8.6c-.23.13-.85-.6-1.89-.6s-1.89.29-1.89.6.85.56 1.89.56 2.62-1.01 1.89-.56z" fill="#fdbc14"></path><path d="M9.07 8.53C8.85 8.68 8.23 8 7.18 8s-1.89.25-1.89.56.85.56 1.89.56 2.64-1.05 1.89-.59z" fill="#fdbe14"></path><path d="M9.07 8.47c-.23.15-.85-.56-1.89-.56s-1.89.25-1.89.56.85.53 1.89.53 2.64-1 1.89-.53z" fill="#fdc015"></path><path d="M9.06 8.41c-.24.16-.85-.56-1.89-.56s-1.89.25-1.89.56.85.59 1.89.59 2.66-1.09 1.89-.59z" fill="#fdc215"></path><path d="M9.06 8.34c-.24.16-.85-.56-1.89-.56s-1.89.22-1.89.56.85.56 1.89.56 2.66-1.07 1.89-.56z" fill="#fdc415"></path><path d="M9.05 8.28c-.25.17-.85-.56-1.89-.56s-1.88.28-1.88.56.85.56 1.89.56 2.67-1.09 1.88-.56z" fill="#fdc615"></path><path d="M9 8.21c-.25.17-.85-.56-1.89-.56s-1.89.25-1.89.56.85.56 1.89.56S9.84 7.67 9 8.21z" fill="#fdc816"></path><path d="M9 8.15c-.26.18-.85-.56-1.89-.56s-1.89.25-1.89.56.85.56 1.89.56S9.84 7.59 9 8.15z" fill="#fdca16"></path><path d="M9 8.09c-.25.18-.87-.55-1.9-.54s-1.87.28-1.87.58.85.55 1.88.54S9.82 7.54 9 8.09z" fill="#fbcb16"></path><path d="M9 8c-.25.17-.89-.54-1.92-.52s-1.86.3-1.85.6.85.54 1.88.51S9.8 7.5 9 8z" fill="#f9cc16"></path><path d="M9 8c-.25.17-.91-.53-1.93-.49s-1.84.32-1.83.62.85.52 1.87.48S9.78 7.45 9 8z" fill="#f7cc16"></path><path d="M9 7.91c-.28.17-1-.52-2-.47s-1.82.34-1.81.64.85.51 1.86.45S9.76 7.41 9 7.91z" fill="#f5cd16"></path><path d="M9 7.85c-.25.16-1-.51-2-.45s-1.81.36-1.79.66.85.49 1.86.43S9.74 7.37 9 7.85z" fill="#f3ce17"></path><path d="M8.94 7.8c-.25.16-1-.5-2-.42s-1.79.38-1.77.68.85.48 1.85.4 2.69-1.14 1.92-.66z" fill="#f1cf17"></path><path d="M8.93 7.74c-.25.15-1-.49-2-.4s-1.78.41-1.75.7S6 8.5 7 8.41a9.85 9.85 0 0 0 1.93-.67z" fill="#efcf17"></path><path d="M8.91 7.68c-.25.15-1-.48-2-.38s-1.76.43-1.72.7.81.47 1.81.37a8.84 8.84 0 0 0 1.91-.69z" fill="#edd017"></path><path d="M8.9 7.62c-.25.14-1-.47-2-.35s-1.76.45-1.73.73.83.44 1.83.33a7.86 7.86 0 0 0 1.9-.71z" fill="#ebd117"></path><path d="M8.88 7.56c-.25.14-1.05-.46-2-.33S5.13 7.7 5.17 8 6 8.41 7 8.28a7.27 7.27 0 0 0 1.88-.72z" fill="#e9d217"></path><path d="M8.86 7.5c-.25.14-1.08-.45-2-.3s-1.75.49-1.7.8.84.38 1.84.24a6.87 6.87 0 0 0 1.86-.74z" fill="#e7d217"></path><path d="M8.85 7.44c-.25.13-1.1-.44-2.05-.28s-1.7.52-1.65.8.85.39 1.85.23a6.47 6.47 0 0 0 1.85-.75z" fill="#e5d317"></path><path d="M8.83 7.38c-.25.13-1.12-.43-2.07-.26s-1.68.54-1.63.82.86.38 1.81.21a6.22 6.22 0 0 0 1.89-.77z" fill="#e3d418"></path><path d="M8.81 7.32c-.25.13-1.14-.42-2.08-.23s-1.66.56-1.61.84.86.36 1.81.18a5.93 5.93 0 0 0 1.88-.79z" fill="#e1d518"></path><path d="M8.8 7.26c-.25.12-1.16-.41-2.1-.21s-1.65.58-1.59.86.87.35 1.8.15 2.6-1.14 1.89-.8z" fill="#dfd518"></path><path d="M8.78 7.2c-.25.12-1.18-.4-2.11-.19S5 7.62 5.1 7.9s.9.33 1.8.1 2.58-1.13 1.88-.8z" fill="#ddd618"></path><path d="M8.76 7.14c-.25.11-1.2-.39-2.12-.16s-1.61.63-1.55.9S6 8.2 6.88 8s2.58-1.17 1.88-.86z" fill="#dbd718"></path><path d="M8.75 7.08c-.25.11-1.22-.38-2.14-.14s-1.6.65-1.53.92.87.3 1.78.07 2.58-1.15 1.89-.85z" fill="#d9d818"></path><path d="M8.73 7c-.25.11-1.24-.36-2.15-.12s-1.58.7-1.51.97.87.29 1.78 0S9.41 6.74 8.73 7z" fill="#d7d818"></path><path d="M8.72 7c-.25.1-1.26-.35-2.16-.09s-1.57.69-1.49 1 .87.28 1.77 0S9.39 6.69 8.72 7z" fill="#d5d918"></path><path d="M8.7 6.91c-.25.1-1.28-.34-2.18-.07s-1.55.71-1.47 1 .87.26 1.76 0 2.56-1.2 1.89-.93z" fill="#d3da19"></path><path d="M8.68 6.85c-.25.09-1.3-.33-2.19 0S5 7.54 5 7.8s.87.25 1.76 0 2.58-1.2 1.92-.95z" fill="#d1db19"></path><path d="M8.67 6.79c-.25.09-1.33-.32-2.2 0s-1.52.76-1.43 1 .88.23 1.75-.07 2.53-1.17 1.88-.93z" fill="#cfdc19"></path><path d="M8.65 6.73c-.25.09-1.35-.31-2.22 0s-1.5.78-1.41 1 .88.22 1.75-.1 2.52-1.12 1.88-.9z" fill="#cddc19"></path><path d="M8.63 6.67c-.25.08-1.37-.3-2.23 0S4.92 7.5 5 7.76s.88.2 1.74-.12 2.53-1.18 1.89-.97z" fill="#cbdd19"></path><path d="M8.62 6.61c-.25.08-1.39-.29-2.25 0S4.9 7.48 5 7.74s.88.19 1.74-.15 2.5-1.18 1.88-.98z" fill="#c9de19"></path><path d="M8.6 6.55a6.37 6.37 0 0 0-2.26.07C5.49 7 4.89 7.47 5 7.72s.88.17 1.73-.18 2.49-1.17 1.87-.99z" fill="#c7df19"></path><path d="M8.58 6.49a6.18 6.18 0 0 0-2.27.1C5.47 7 4.87 7.46 5 7.71s.88.16 1.72-.21 2.47-1.18 1.86-1.01z" fill="#c5df19"></path><path d="M8.57 6.43a6 6 0 0 0-2.29.12c-.84.38-1.42.89-1.31 1.14s.88.14 1.72-.23 2.48-1.19 1.88-1.03z" fill="#c3e019"></path><path d="M8.55 6.37a5.87 5.87 0 0 0-2.3.14c-.83.39-1.4.91-1.29 1.16s.88.13 1.71-.26 2.47-1.18 1.88-1.04z" fill="#c1e11a"></path><path d="M8.54 6.31a5.73 5.73 0 0 0-2.31.17c-.83.41-1.4.93-1.23 1.18s.89.12 1.71-.29 2.41-1.19 1.83-1.06z" fill="#bfe21a"></path><path d="M8.52 6.25a5.61 5.61 0 0 0-2.33.19c-.81.42-1.37 1-1.25 1.2s.89.1 1.7-.32 2.45-1.19 1.88-1.07z" fill="#bde21a"></path><path d="M8.5 6.19a5.48 5.48 0 0 0-2.34.21c-.81.43-1.36 1-1.23 1.22s.89.09 1.7-.34 2.44-1.2 1.87-1.09z" fill="#bbe31a"></path><path d="M8.49 6.14a5.36 5.36 0 0 0-2.36.24c-.8.44-1.34 1-1.21 1.24s.89.07 1.69-.37S9 6 8.49 6.14z" fill="#bae41a"></path><path d="M8.47 6.08a5.23 5.23 0 0 0-2.37.26c-.79.46-1.32 1-1.19 1.26s.89.06 1.68-.4S9 6 8.47 6.08z" fill="#b8e51a"></path><path d="M8.45 6a4.58 4.58 0 0 0-2.38.29c-.79.47-1.31 1-1.17 1.28s.89 0 1.68-.43S9 5.85 8.45 6z" fill="#b6e51a"></path><path d="M8.44 6A4.49 4.49 0 0 0 6 6.27c-.78.48-1.29 1.07-1.15 1.3s.89 0 1.67-.46S8.94 5.8 8.44 6z" fill="#b4e61a"></path><path d="M8.42 5.9A4.42 4.42 0 0 0 6 6.23c-.77.5-1.28 1.09-1.13 1.32s.89 0 1.67-.48S8.92 5.75 8.42 5.9z" fill="#b2e71b"></path><path d="M8.4 5.84A4.35 4.35 0 0 0 6 6.2c-.77.51-1.26 1.11-1.11 1.34s.9 0 1.66-.51S8.89 5.7 8.4 5.84z" fill="#b0e81b"></path><path d="M8.39 5.78A4.28 4.28 0 0 0 6 6.16c-.76.52-1.24 1.13-1.09 1.36s.9 0 1.65-.54 2.31-1.33 1.83-1.2z" fill="#aee81b"></path><path d="M8.37 5.72a4.22 4.22 0 0 0-2.45.4c-.75.54-1.23 1.15-1.07 1.38s.9 0 1.65-.56S8.84 5.6 8.37 5.72z" fill="#ace91b"></path><path d="M8.36 5.66a4.16 4.16 0 0 0-2.47.43c-.74.55-1.21 1.17-1 1.4s.9 0 1.64-.59 2.29-1.34 1.83-1.24z" fill="#aaea1b"></path><path d="M8.34 5.6a4.12 4.12 0 0 0-2.48.45c-.74.56-1.2 1.2-1 1.42s.9-.06 1.64-.62S8.79 5.51 8.34 5.6z" fill="#a8eb1b"></path><path d="M8.32 5.54A4.05 4.05 0 0 0 5.83 6c-.73.58-1.18 1.22-1 1.44s.9-.07 1.63-.65 2.31-1.33 1.86-1.25z" fill="#a6eb1b"></path><path d="M8.31 5.48A4 4 0 0 0 5.8 6c-.72.59-1.16 1.24-1 1.46s.9-.09 1.62-.67 2.33-1.38 1.89-1.31z" fill="#a4ec1b"></path><path d="M8.29 5.43a4 4 0 0 0-2.52.52c-.71.6-1.15 1.26-1 1.48s.9-.1 1.62-.7 2.33-1.37 1.9-1.3z" fill="#a2ed1b"></path><path d="M8.27 5.37a3.92 3.92 0 0 0-2.53.54c-.71.61-1.13 1.28-.95 1.5s.91-.12 1.61-.73 2.3-1.36 1.87-1.31z" fill="#a0ee1c"></path><path d="M8.26 5.31a3.89 3.89 0 0 0-2.55.57c-.71.62-1.12 1.3-.93 1.51s.91-.13 1.61-.76 2.28-1.36 1.87-1.32z" fill="#9eef1c"></path><path d="M8.24 5.25a3.84 3.84 0 0 0-2.56.59c-.69.64-1.1 1.33-.91 1.54s.91-.14 1.6-.79 2.28-1.37 1.87-1.34z" fill="#9cef1c"></path><path d="M8.23 5.19a4.08 4.08 0 0 0-2.57.62c-.66.65-1.09 1.34-.9 1.55s.91-.16 1.6-.81 2.26-1.31 1.87-1.36z" fill="#9af01c"></path><path d="M8.21 5.13a4 4 0 0 0-2.59.64c-.68.67-1.07 1.37-.87 1.58s.91-.17 1.59-.84S8.6 5.19 8.21 5.13z" fill="#98f11c"></path><path d="M8.19 5.07a4 4 0 0 0-2.6.66c-.67.68-1.05 1.4-.85 1.6s.91-.19 1.58-.87 2.25-1.33 1.87-1.39z" fill="#96f21c"></path><path d="M8.18 5a3.93 3.93 0 0 0-2.62.69c-.66.69-1 1.42-.83 1.62s.91-.2 1.58-.9S8.54 5.08 8.18 5z" fill="#94f21c"></path><path d="M8.16 5a3.89 3.89 0 0 0-2.63.71c-.66.71-1 1.44-.81 1.64s.92-.22 1.57-.92S8.52 5 8.16 5z" fill="#92f31c"></path><path d="M8.14 4.89a3.84 3.84 0 0 0-2.64.73c-.65.72-1 1.46-.79 1.65s.92-.23 1.57-1S8.49 5 8.14 4.89z" fill="#90f41d"></path><path d="M8.13 4.83a3.8 3.8 0 0 0-2.66.76c-.64.73-1 1.48-.77 1.67s.92-.25 1.56-1 2.21-1.33 1.87-1.43z" fill="#8ef51d"></path><path d="M8.11 4.77a3.76 3.76 0 0 0-2.67.78c-.64.75-1 1.5-.75 1.69s.92-.26 1.55-1 2.2-1.37 1.87-1.47z" fill="#8cf51d"></path><path d="M8.09 4.71a3.73 3.73 0 0 0-2.69.8c-.63.76-1 1.53-.73 1.71S5.6 7 6.23 6.2s2.19-1.38 1.86-1.49z" fill="#8af61d"></path><path d="M8.08 4.65a3.69 3.69 0 0 0-2.7.83c-.62.77-.94 1.55-.71 1.73s.92-.29 1.54-1.06 2.18-1.38 1.87-1.5z" fill="#88f71d"></path><path d="M8.06 4.59a3.65 3.65 0 0 0-2.71.85c-.62.79-.92 1.56-.69 1.76s.92-.3 1.54-1.09 2.17-1.39 1.86-1.52z" fill="#86f81d"></path><path d="M8 4.54a3.62 3.62 0 0 0-2.73.88c-.61.8-.91 1.59-.67 1.77s.92-.32 1.53-1.12S8.35 4.66 8 4.54z" fill="#84f81d"></path><path d="M8 4.48a3.59 3.59 0 0 0-2.74.9c-.6.81-.89 1.61-.65 1.79S5.57 6.84 6.17 6 8.32 4.61 8 4.48z" fill="#82f91d"></path><path d="M8 4.42a3.56 3.56 0 0 0-2.75.92c-.59.82-.87 1.64-.63 1.81S5.56 6.81 6.15 6 8.3 4.56 8 4.42z" fill="#80fa1e"></path><path d="M8 4.36a3.54 3.54 0 0 0-2.77.95c-.59.84-.86 1.66-.61 1.83s.93-.36 1.51-1.2S8.28 4.51 8 4.36z" fill="#7efb1e"></path><path d="M8 4.3a3.51 3.51 0 0 0-2.78 1c-.58.85-.84 1.68-.59 1.85s.93-.38 1.51-1.23S8.25 4.45 8 4.3z" fill="#7cfb1e"></path><path d="M8 4.24a3.48 3.48 0 0 0-2.79 1c-.57.86-.83 1.7-.57 1.87s.93-.39 1.5-1.25S8.23 4.4 8 4.24z" fill="#7afc1e"></path><path d="M7.95 4.18a3.46 3.46 0 0 0-2.81 1c-.56.88-.81 1.72-.55 1.89s.93-.4 1.5-1.28 2.12-1.44 1.86-1.61z" fill="#78fd1e"></path><path d="M7.89 4.18a3.45 3.45 0 0 0-2.79 1c-.57.87-.84 1.72-.58 1.89s1-.4 1.52-1.27 2.11-1.45 1.85-1.62z" fill="#76fd1e"></path><path d="M7.84 4.18a3.42 3.42 0 0 0-2.78 1c-.57.87-.86 1.71-.6 1.88s1-.39 1.54-1.26 2.1-1.45 1.84-1.62z" fill="#74fd1e"></path><path d="M7.78 4.18a3.4 3.4 0 0 0-2.78 1c-.58.87-.89 1.7-.63 1.87s1-.38 1.57-1.25S8 4.36 7.78 4.18z" fill="#73fd1e"></path><path d="M7.73 4.18a3.39 3.39 0 0 0-2.73 1C4.39 6 4.06 6.87 4.32 7s1-.37 1.59-1.23S8 4.36 7.73 4.18z" fill="#71fd1e"></path><path d="M7.67 4.19a3.36 3.36 0 0 0-2.74 1C4.35 6 4 6.86 4.25 7s1-.37 1.61-1.22 2.07-1.42 1.81-1.59z" fill="#6ffd1e"></path><path d="M7.62 4.19a3.35 3.35 0 0 0-2.72 1C4.31 6 3.93 6.84 4.18 7s1-.36 1.64-1.21 2.05-1.43 1.8-1.6z" fill="#6dfd1e"></path><path d="M7.57 4.19a3.33 3.33 0 0 0-2.71 1c-.6.85-1 1.66-.74 1.84s1.06-.35 1.66-1.2 2.04-1.46 1.79-1.64z" fill="#6bfd1e"></path><path d="M7.51 4.19a3.31 3.31 0 0 0-2.7 1C4.21 6 3.79 6.82 4 7s1.08-.34 1.68-1.19 2.08-1.44 1.83-1.62z" fill="#6afd1e"></path><path d="M7.46 4.19a3.29 3.29 0 0 0-2.68 1C4.17 6 3.73 6.8 4 7s1.1-.34 1.71-1.17 2-1.46 1.75-1.64z" fill="#68fd1e"></path><path d="M7.4 4.19a3.26 3.26 0 0 0-2.67 1C4.13 6 3.66 6.79 3.91 7S5 6.64 5.64 5.81 7.65 4.38 7.4 4.19z" fill="#66fd1e"></path><path d="M7.35 4.2a3.25 3.25 0 0 0-2.65 1C4.08 6 3.59 6.78 3.84 7S5 6.64 5.59 5.81 7.6 4.38 7.35 4.2z" fill="#64fd1e"></path><path d="M7.29 4.2a3.23 3.23 0 0 0-2.64.95C4 6 3.52 6.76 3.77 6.95s1.16-.31 1.78-1.14S7.54 4.38 7.29 4.2z" fill="#63fd1e"></path><path d="M7.24 4.2a3.21 3.21 0 0 0-2.63.94C4 6 3.46 6.75 3.7 6.94s1.18-.31 1.8-1.13S7.48 4.38 7.24 4.2z" fill="#61fd1e"></path><path d="M7.18 4.2a3.19 3.19 0 0 0-2.61.93c-.62.87-1.18 1.61-.94 1.8s1.2-.3 1.82-1.12S7.43 4.39 7.18 4.2z" fill="#5ffd1e"></path><path d="M7.13 4.2a3.17 3.17 0 0 0-2.6.93c-.63.81-1.21 1.6-1 1.79s1.22-.29 1.85-1.1S7.37 4.39 7.13 4.2z" fill="#5dfd1e"></path><path d="M7.08 4.2a3.15 3.15 0 0 0-2.58.92c-.63.81-1.23 1.59-1 1.78s1.24-.28 1.87-1.09S7.32 4.39 7.08 4.2z" fill="#5bfd1e"></path><path d="M7 4.2a3.12 3.12 0 0 0-2.57.92c-.64.8-1.26 1.58-1 1.77s1.25-.27 1.89-1.08S7.26 4.39 7 4.2z" fill="#5afd1e"></path><path d="M7 4.21a3.1 3.1 0 0 0-2.56.91c-.64.8-1.29 1.57-1 1.76s1.27-.27 1.92-1.07S7.21 4.4 7 4.21z" fill="#58fd1e"></path><path d="M6.91 4.21a3.09 3.09 0 0 0-2.54.9c-.65.8-1.31 1.56-1.08 1.76s1.29-.26 1.94-1.06 1.92-1.41 1.68-1.6z" fill="#56fd1e"></path><path d="M6.86 4.21a3.06 3.06 0 0 0-2.53.9C3.68 5.9 3 6.66 3.22 6.86s1.31-.25 2-1S7.09 4.4 6.86 4.21z" fill="#54fd1e"></path><path d="M6.8 4.21a3 3 0 0 0-2.51.89c-.66.79-1.37 1.55-1.13 1.74s1.33-.24 2-1S7 4.41 6.8 4.21z" fill="#52fd1e"></path><path d="M6.75 4.21a3 3 0 0 0-2.5.89c-.66.78-1.39 1.54-1.16 1.74s1.35-.24 2-1S7 4.41 6.75 4.21z" fill="#51fd1e"></path><path d="M6.69 4.21a3 3 0 0 0-2.49.88c-.66.78-1.41 1.53-1.2 1.73s1.37-.23 2-1 1.93-1.41 1.69-1.61z" fill="#4ffd1e"></path><path d="M6.64 4.21a3 3 0 0 0-2.47.87C3.5 5.86 2.72 6.61 3 6.81s1.39-.22 2.06-1 1.81-1.4 1.58-1.6z" fill="#4dfd1e"></path><path d="M6.58 4.22a3 3 0 0 0-2.46.87c-.67.76-1.47 1.51-1.24 1.71s1.41-.21 2.08-1 1.86-1.38 1.62-1.58z" fill="#4bfd1e"></path><path d="M6.53 4.22a3 3 0 0 0-2.44.86c-.68.77-1.5 1.5-1.27 1.71s1.43-.21 2.1-1 1.84-1.37 1.61-1.57z" fill="#49fd1e"></path><path d="M6.48 4.22A2.92 2.92 0 0 0 4 5.07c-.68.76-1.53 1.5-1.3 1.7s1.44-.2 2.13-1S6.7 4.42 6.48 4.22z" fill="#48fd1e"></path><path d="M6.42 4.22A2.9 2.9 0 0 0 4 5.07c-.69.76-1.55 1.49-1.33 1.69s1.46-.19 2.15-.95 1.83-1.39 1.6-1.59z" fill="#46fd1e"></path><path d="M6.37 4.22A2.88 2.88 0 0 0 4 5.07c-.69.75-1.58 1.48-1.35 1.68s1.48-.18 2.17-.94 1.77-1.38 1.55-1.59z" fill="#44fd1e"></path><path d="M6.31 4.22a2.87 2.87 0 0 0-2.39.84c-.7.75-1.61 1.47-1.38 1.68s1.5-.17 2.2-.93 1.8-1.38 1.57-1.59z" fill="#42fd1e"></path><path d="M6.26 4.22a2.84 2.84 0 0 0-2.37.83c-.7.75-1.63 1.46-1.41 1.67S4 6.56 4.69 5.81s1.79-1.38 1.57-1.59z" fill="#40fd1e"></path><path d="M6.2 4.23a2.82 2.82 0 0 0-2.36.83c-.7.74-1.66 1.45-1.44 1.66s1.54-.16 2.24-.9S6.43 4.44 6.2 4.23z" fill="#3ffd1e"></path><path d="M6.15 4.23A2.8 2.8 0 0 0 3.8 5c-.71.74-1.69 1.44-1.47 1.66s1.56-.15 2.27-.89 1.77-1.33 1.55-1.54z" fill="#3dfd1e"></path><path d="M6.09 4.23C5.87 4 4.47 4.31 3.76 5S2 6.48 2.27 6.69s1.58-.14 2.29-.88 1.75-1.37 1.53-1.58z" fill="#3bfe1e"></path><path d="M6 4.23C5.82 4 4.44 4.31 3.72 5S2 6.47 2.2 6.68s1.6-.14 2.31-.87S6.26 4.44 6 4.23z" fill="#39fe1e"></path><path d="M6 4.23C5.77 4 4.4 4.31 3.68 5S1.91 6.45 2.13 6.67s1.61-.13 2.34-.85S6.2 4.45 6 4.23z" fill="#38fe1e"></path><path d="M5.93 4.23C5.72 4 4.37 4.31 3.64 5S1.85 6.44 2.06 6.66s1.63-.12 2.36-.84 1.73-1.37 1.51-1.59z" fill="#36fe1e"></path><path d="M5.88 4.23C5.66 4 4.33 4.31 3.6 5S1.78 6.43 2 6.64s1.65-.11 2.38-.83 1.71-1.36 1.5-1.58z" fill="#34fe1e"></path><path d="M5.82 4.24C5.61 4 4.29 4.31 3.56 5S1.71 6.41 1.93 6.63s1.67-.11 2.41-.82S6 4.45 5.82 4.24z" fill="#32fe1e"></path><path d="M5.77 4.24C5.56 4 4.26 4.31 3.52 5S1.65 6.4 1.86 6.62s1.69-.1 2.43-.81S6 4.46 5.77 4.24z" fill="#30fe1e"></path><path d="M5.71 4.24C5.5 4 4.22 4.31 3.48 5s-1.9 1.38-1.69 1.6 1.71-.09 2.45-.8 1.68-1.34 1.47-1.56z" fill="#2ffe1e"></path><path d="M5.66 4.24C5.45 4 4.18 4.3 3.44 5S1.51 6.38 1.72 6.6s1.73-.08 2.48-.78 1.67-1.36 1.46-1.58z" fill="#2dfe1e"></path><path d="M5.6 4.24C5.4 4 4.15 4.3 3.4 5s-2 1.36-1.74 1.59a3.15 3.15 0 0 0 2.5-.77c.74-.7 1.65-1.35 1.44-1.58z" fill="#2bfe1e"></path><path d="M5.55 4.24C5.34 4 4.11 4.3 3.36 5s-2 1.35-1.77 1.58a3.19 3.19 0 0 0 2.52-.76c.75-.7 1.65-1.35 1.44-1.58z" fill="#29fe1e"></path><path d="M5.5 4.24C5.29 4 4.08 4.3 3.32 5s-2 1.34-1.8 1.57a3.24 3.24 0 0 0 2.55-.75c.75-.69 1.63-1.35 1.43-1.58z" fill="#27fe1e"></path><path d="M5.44 4.25C5.24 4 4 4.3 3.28 5s-2 1.34-1.83 1.56S3.25 6.5 4 5.81s1.65-1.34 1.44-1.56z" fill="#26fe1e"></path><path d="M5.39 4.25C5.18 4 4 4.3 3.24 5S1.18 6.31 1.38 6.54A3.32 3.32 0 0 0 4 5.82c.74-.69 1.59-1.34 1.39-1.57z" fill="#24fe1e"></path><path d="M5.33 4.25C5.13 4 4 4.3 3.2 5S1.11 6.3 1.31 6.53a3.37 3.37 0 0 0 2.62-.71c.77-.68 1.6-1.34 1.4-1.57z" fill="#22fe1e"></path><path d="M5.28 4.25C5.08 4 3.93 4.3 3.15 5S1 6.28 1.24 6.52a3.41 3.41 0 0 0 2.64-.7c.78-.68 1.6-1.34 1.4-1.57z" fill="#20fe1e"></path><path d="M5.22 4.25C5 4 3.9 4.3 3.11 5S1 6.27 1.17 6.51a3.46 3.46 0 0 0 2.66-.69c.79-.67 1.59-1.34 1.39-1.57z" fill="#1efe1e"></path><path d="M5.17 4.25C5 4 3.86 4.3 3.07 5s-2.17 1.29-2 1.53a3.5 3.5 0 0 0 2.69-.68c.82-.7 1.61-1.36 1.41-1.6z" fill="#1dfe1e"></path><path d="M5.11 4.25C4.92 4 3.82 4.3 3 5S.84 6.25 1 6.48a3.55 3.55 0 0 0 2.71-.67c.83-.65 1.6-1.32 1.4-1.56z" fill="#1bfe1e"></path><path d="M5.06 4.26C4.86 4 3.79 4.3 3 5S.77 6.23 1 6.47a3.59 3.59 0 0 0 2.7-.65c.8-.66 1.56-1.33 1.36-1.56z" fill="#19fe1e"></path><path d="M5 4.26C4.81 4 3.75 4.3 3 5S.71 6.22.9 6.46a3.64 3.64 0 0 0 2.76-.64C4.46 5.17 5.2 4.5 5 4.26z" fill="#17fe1e"></path><path d="M5 4.26c-.19-.24-1.24 0-2 .69S.64 6.21.83 6.45s2 0 2.78-.63S5.14 4.5 5 4.26z" fill="#15fe1e"></path><path d="M4.9 4.26c-.19-.24-1.22 0-2 .68S.57 6.19.76 6.43s2 0 2.8-.62S5.09 4.5 4.9 4.26z" fill="#14fe1e"></path><path d="M4.84 4.26c-.19-.24-1.2 0-2 .68S.51 6.18.7 6.42s2 0 2.83-.61S5 4.5 4.84 4.26z" fill="#12fe1e"></path><path d="M4.79 4.26c-.19-.25-1.18 0-2 .67S.44 6.17.63 6.41s2 0 2.85-.59S5 4.51 4.79 4.26z" fill="#10fe1e"></path><path d="M4.73 4.26c-.19-.25-1.16 0-2 .67S.37 6.15.56 6.4s2.05 0 2.87-.58 1.49-1.31 1.3-1.56z" fill="#0efe1e"></path><path d="M4.68 4.26c-.19-.25-1.14 0-2 .66S.3 6.14.49 6.39s2.07.06 2.9-.57 1.48-1.31 1.29-1.56z" fill="#0dfe1e"></path><path d="M4.62 4.27c-.19-.25-1.13 0-2 .65S.24 6.13.42 6.38s2.09.06 2.92-.56 1.47-1.31 1.28-1.55z" fill="#0bfe1e"></path><path d="M4.57 4.27c-.18-.25-1.11 0-1.94.65S.17 6.12.35 6.36s2.11.07 2.94-.55 1.46-1.29 1.28-1.54z" fill="#09fe1e"></path><path d="M4.52 4.27c-.18-.25-1.09 0-1.93.64S.1 6.1.29 6.35s2.13.08 3-.54S4.7 4.52 4.52 4.27z" fill="#07fe1e"></path><path d="M4.46 4.27c-.18-.25-1.07 0-1.91.64S0 6.09.22 6.34s2.15.09 3-.52 1.42-1.3 1.24-1.55z" fill="#05fe1e"></path><path d="M4.41 4.27c-.18-.25-1.05 0-1.9.63S0 6.08.15 6.33s2.17.09 3-.51 1.44-1.3 1.26-1.55z" fill="#04fe1e"></path><path d="M4.35 4.27c-.18-.26-1 0-1.89.62S-.1 6.06.08 6.32s2.18.1 3-.5 1.45-1.29 1.27-1.55z" fill="#02fe1e"></path><path d="M4.3 4.27c-.18-.26-1 0-1.87.62S-.17 6.05 0 6.31s2.2.11 3.06-.49S4.48 4.53 4.3 4.27z" fill="#00fe1e"></path><path d="M0 6.23c.17.25 2.18.13 3-.45s1.46-1.26 1.29-1.51-1 0-1.86.58S-.15 6 0 6.23z" fill="#00fe21"></path><path d="M0 6.14c.17.26 2.15.14 3-.41s1.44-1.22 1.28-1.47-1 0-1.85.55S-.14 5.89 0 6.14z" fill="#00fd24"></path><path d="M0 6.06c.16.25 2.13.16 3-.38S4.43 4.5 4.27 4.25s-1 0-1.83.51S-.13 5.81 0 6.06z" fill="#00fd27"></path><path d="M0 6c.16.25 2.11.18 3-.34s1.41-1.15 1.26-1.4-1 0-1.82.48S-.11 5.73 0 6z" fill="#00fc29"></path><path d="M0 5.9c.2.26 2.13.2 3-.3s1.4-1.12 1.25-1.37-1-.05-1.81.45S-.1 5.65 0 5.9z" fill="#00fc2c"></path><path d="M.06 5.82C.2 6.08 2.12 6 3 5.55s1.38-1.07 1.24-1.33-.95-.07-1.8.41-2.53.94-2.38 1.19z" fill="#00fb2f"></path><path d="M.06 5.74C.2 6 2.1 6 2.95 5.51s1.42-1 1.28-1.29-.94-.08-1.78.38-2.52.89-2.39 1.14z" fill="#00fb32"></path><path d="M.07 5.66c.13.25 2 .25 2.86-.2s1.42-1 1.29-1.26-.93-.1-1.77.34-2.51.87-2.38 1.12z" fill="#00fa35"></path><path d="M.08 5.58c.13.25 2 .26 2.83-.16s1.43-1 1.3-1.22-.91-.11-1.76.31S0 5.33.08 5.58z" fill="#00fa38"></path><path d="M.09 5.5c.12.25 2 .28 2.81-.12s1.42-.94 1.3-1.19-.9-.13-1.75.27S0 5.25.09 5.5z" fill="#00f93b"></path><path d="M.09 5.42c.12.25 1.94.3 2.78-.09s1.43-.9 1.32-1.15-.89-.18-1.73.24-2.46.75-2.37 1z" fill="#00f93e"></path><path d="M.1 5.34c.11.25 1.92.31 2.76-.05s1.43-.86 1.33-1.12-.89-.17-1.73.2S0 5.09.1 5.34z" fill="#00f840"></path><path d="M.11 5.26c.1.25 1.89.33 2.73 0s1.44-.83 1.33-1.08-.87-.18-1.71.15S0 5 .11 5.26z" fill="#00f843"></path><path d="M.12 5.18c.1.25 1.87.35 2.71 0s1.44-.79 1.34-1-.86-.18-1.7.11S0 4.92.12 5.18z" fill="#00f746"></path><path d="M.12 5.09c.09.25 1.84.37 2.68.06s1.44-.76 1.35-1-.84-.2-1.68.1S0 4.84.12 5.09z" fill="#00f749"></path><path d="M.13 5c.09.25 1.82.38 2.66.09s1.44-.72 1.36-1-.83-.22-1.67.07S0 4.76.13 5z" fill="#00f64c"></path><path d="M.14 4.93c.08.25 1.79.4 2.63.13s1.45-.69 1.37-.94-.82-.23-1.66 0-2.42.56-2.34.81z" fill="#00f64f"></path><path d="M.14 4.85c.07.25 1.77.42 2.6.17s1.45-.65 1.38-.9-.81-.25-1.64 0-2.41.48-2.34.73z" fill="#00f552"></path><path d="M.15 4.77C.22 5 1.9 5.2 2.73 5s1.45-.62 1.38-.87-.8-.26-1.63 0-2.4.39-2.33.64z" fill="#00f554"></path><path d="M.16 4.69c.06.25 1.72.45 2.55.24s1.46-.58 1.39-.83-.78-.28-1.61-.1-2.39.44-2.33.69z" fill="#00f457"></path><path d="M.18 4.56c.06.25 1.7.47 2.53.28S4.16 4.29 4.1 4s-.78-.29-1.61-.1-2.37.41-2.31.66z" fill="#00f45a"></path><path d="M.18 4.47c.05.25 1.67.48 2.5.31S4.15 4.27 4.09 4s-.76-.31-1.59-.14-2.37.36-2.32.61z" fill="#00f35d"></path><path d="M.19 4.39c0 .25 1.65.5 2.48.35S4.13 4.26 4.08 4s-.75-.32-1.58-.17-2.35.31-2.31.56z" fill="#00f360"></path><path d="M.2 4.3c0 .25 1.63.52 2.45.38S4.12 4.25 4.08 4s-.74-.34-1.57-.21S.16 4.05.2 4.3z" fill="#00f263"></path><path d="M.21 4.22c0 .25 1.6.54 2.43.42S4.1 4.23 4.07 4s-.73-.35-1.56-.24-2.34.24-2.3.46z" fill="#00f266"></path><path d="M.21 4.13c0 .25 1.58.55 2.4.46S4.08 4.22 4.06 4s-.72-.4-1.55-.3-2.33.19-2.3.43z" fill="#00f169"></path><path d="M.22 4c0 .25 1.55.57 2.38.5S4.07 4.21 4 4s-.71-.38-1.53-.31S.2 3.8.22 4z" fill="#00f16b"></path><path d="M.23 4c0 .24 1.53.59 2.35.53S4.05 4.19 4 3.95s-.7-.4-1.52-.34S.21 3.72.23 4z" fill="#00f06e"></path><path d="M.23 3.88c0 .24 1.51.6 2.33.57S4 4.18 4 3.94s-.68-.41-1.51-.38-2.27.07-2.26.32z" fill="#00f071"></path><path d="M.24 3.8c0 .25 1.48.62 2.3.6S4 4.17 4 3.93s-.67-.43-1.49-.41-2.27.03-2.27.28z" fill="#00ef74"></path><path d="M.25 3.71c0 .25 1.46.64 2.28.64S4 4.16 4 3.92s-.66-.44-1.48-.45-2.27 0-2.27.24z" fill="#00ef77"></path><path d="M.26 3.64c0 .24 1.43.66 2.25.68S4 4.16 4 3.91s-.65-.46-1.47-.48-2.27-.04-2.27.21z" fill="#00ee7a"></path><path d="M.26 3.56c0 .24 1.41.67 2.23.71S4 4.15 4 3.91s-.64-.47-1.46-.51-2.26-.08-2.28.16z" fill="#00ee7d"></path><path d="M.27 3.49c0 .24 1.39.69 2.2.75S4 4.15 4 3.9s-.63-.49-1.44-.55-2.27-.11-2.29.14z" fill="#00ed7f"></path><path d="M.28 3.41c0 .24 1.36.71 2.18.79S3.95 4.15 4 3.9s-.62-.5-1.43-.58S.3 3.17.28 3.41z" fill="#00ed82"></path><path d="M.29 3.34c0 .24 1.34.72 2.15.82S3.93 4.14 4 3.9s-.6-.52-1.42-.62-2.27-.19-2.29.06z" fill="#00ec85"></path><path d="M.29 3.26c0 .24 1.31.74 2.13.86s1.5 0 1.53-.23-.59-.53-1.4-.65S.33 3 .29 3.26z" fill="#00ec88"></path><path d="M.29 3.23c0 .24 1.29.76 2.1.89s1.5.05 1.54-.19-.58-.55-1.39-.69S.33 3 .29 3.23z" fill="#00eb8b"></path><path d="M.3 3.15c0 .24 1.27.78 2.08.93s1.5.09 1.55-.15-.57-.56-1.38-.72S.34 2.91.3 3.15z" fill="#00eb8e"></path><path d="M.3 3.07c-.05.24 1.24.79 2 1s1.5.12 1.56-.12-.56-.58-1.37-.76S.36 2.83.3 3.07z" fill="#00ea91"></path><path d="M.31 3c-.06.24 1.22.81 2 1s1.51.16 1.57-.08-.55-.59-1.35-.79S.37 2.75.31 3z" fill="#00ea93"></path><path d="M.32 2.91c-.06.24 1.19.83 2 1s1.51.19 1.57 0-.54-.61-1.34-.82S.38 2.67.32 2.91z" fill="#00e996"></path><path d="M.33 2.83c-.07.24 1.17.84 2 1.08s1.51.23 1.58 0-.55-.64-1.36-.91S.4 2.59.33 2.83z" fill="#00e999"></path><path d="M.33 2.75c-.07.25 1.15.86 1.95 1.11s1.51.26 1.59 0-.51-.61-1.31-.86S.41 2.51.33 2.75z" fill="#00e89c"></path><path d="M.34 2.67c-.08.24 1.12.88 1.92 1.15s1.52.3 1.6.06-.5-.66-1.3-.93S.42 2.43.34 2.67z" fill="#00e89f"></path><path d="M.35 2.59c-.09.24 1.1.89 1.9 1.19s1.52.33 1.61.09-.49-.67-1.29-1S.44 2.35.35 2.59z" fill="#00e7a2"></path><path d="M.36 2.51c-.09.24 1.07.91 1.87 1.22s1.52.37 1.61.13-.48-.68-1.28-1-2.11-.59-2.2-.35z" fill="#00e7a5"></path><path d="M.36 2.43c-.1.24 1 .93 1.85 1.26s1.52.41 1.62.17-.47-.7-1.27-1-2.1-.67-2.2-.43z" fill="#00e6a8"></path><path d="M.37 2.34c-.1.24 1 .95 1.82 1.3s1.53.44 1.63.2-.46-.71-1.25-1.07-2.1-.66-2.2-.43z" fill="#00e6aa"></path><path d="M.38 2.26c-.11.24 1 1 1.8 1.33s1.53.48 1.64.24-.44-.73-1.24-1.1S.49 2 .38 2.26z" fill="#00e5ad"></path><path d="M.38 2.18c-.12.24 1 1 1.77 1.37s1.53.51 1.65.27-.43-.75-1.23-1.13S.5 1.95.38 2.18z" fill="#00e5b0"></path><path d="M.39 2.1c-.12.24 1 1 1.75 1.4s1.53.55 1.66.31-.42-.76-1.22-1.17S.51 1.87.39 2.1z" fill="#00e4b3"></path><path d="M.4 2c-.13.24.93 1 1.72 1.44s1.54.58 1.66.35-.4-.79-1.2-1.18S.53 1.79.4 2z" fill="#00e4b6"></path><path d="M.41 1.94c-.13.24.91 1 1.7 1.48s1.53.58 1.67.38-.4-.8-1.19-1.24S.54 1.7.41 1.94z" fill="#00e3b9"></path><path d="M.41 1.86c-.14.24.88 1 1.67 1.51s1.54.65 1.68.42S3.38 3 2.59 2.52.55 1.62.41 1.86z" fill="#00e3bc"></path><path d="M.42 1.78c-.14.22.86 1.06 1.65 1.55s1.54.69 1.69.45-.38-.78-1.17-1.3-2.02-.94-2.17-.7z" fill="#00e2be"></path><path d="M.43 1.7c-.15.24.83 1.08 1.62 1.59s1.55.72 1.7.49-.37-.84-1.15-1.35S.58 1.46.43 1.7z" fill="#00e2c1"></path><path d="M.44 1.62c-.16.23.81 1.1 1.6 1.62s1.55.76 1.71.52-.37-.85-1.15-1.37S.59 1.38.44 1.62z" fill="#00e1c4"></path><path d="M.44 1.54C.28 1.77 1.23 2.65 2 3.2s1.55.79 1.71.56-.32-.87-1.11-1.41S.61 1.3.44 1.54z" fill="#00e1c7"></path><path d="M.45 1.46c-.17.23.76 1.13 1.55 1.7s1.55.83 1.72.59-.33-.88-1.12-1.45S.62 1.22.45 1.46z" fill="#00e0ca"></path><path d="M.46 1.38C.28 1.61 1.2 2.52 2 3.11s1.56.86 1.73.63-.32-.9-1.1-1.48-2-1.12-2.17-.88z" fill="#00e0cd"></path><path d="M.46 1.3c-.18.23.71 1.17 1.5 1.77s1.56.9 1.74.67-.31-.91-1.09-1.51S.65 1.06.46 1.3z" fill="#00dfd0"></path><path d="M.47 1.21C.29 1.45 1.16 2.4 1.94 3s1.56.93 1.75.7-.3-.93-1.08-1.55S.66 1 .47 1.21z" fill="#00dfd3"></path><path d="M.48 1.13c-.19.23.67 1.2 1.45 1.84s1.56 1 1.76.74-.29-.94-1.07-1.58S.67.9.48 1.13z" fill="#00ded5"></path><path d="M.49 1.05c-.2.23.64 1.22 1.42 1.88s1.57 1 1.76.77-.27-1-1.05-1.61S.68.82.49 1.05z" fill="#00ded8"></path><path d="M.49 1c-.2.23.62 1.23 1.39 1.91s1.57 1 1.77.81-.26-1-1-1.65S.7.74.49 1z" fill="#00dddb"></path><path d="M3.65 3.68c.21-.23-.25-1-1-1.68S.71.66.5.89s.59 1.25 1.37 2 1.57 1.03 1.78.79z" fill="#00ddde"></path><path d="M3.73 3.68c.21-.23-.24-1-1-1.69S.82.65.61.88 1.19 2.12 2 2.83s1.52 1.08 1.73.85z" fill="#00dade"></path><path d="M3.8 3.68c.21-.23-.23-1-1-1.69S.94.64.73.86 1.29 2.11 2 2.81s1.59 1.1 1.8.87z" fill="#01d7df"></path><path d="M3.87 3.69c.21-.22-.22-1-1-1.7S1.05.63.84.85s.55 1.24 1.3 2 1.52 1.06 1.73.84z" fill="#01d4df"></path><path d="M3.95 3.69c.22-.22-.21-1-.95-1.7S1.16.62.95.84s.53 1.23 1.27 2 1.51 1.07 1.73.85z" fill="#01d1e0"></path><path d="M4 3.69c.22-.22-.2-1-.93-1.7S1.28.61 1.06.82s.52 1.23 1.25 2S3.8 3.91 4 3.69z" fill="#01cee0"></path><path d="M4.09 3.69c.22-.22-.19-1-.91-1.71S1.39.6 1.17.81 1.68 2 2.4 2.76s1.48 1.14 1.69.93z" fill="#02cae1"></path><path d="M4.17 3.69c.22-.21-.18-1-.89-1.71S1.5.59 1.29.8 1.77 2 2.48 2.75s1.47 1.15 1.69.94z" fill="#02c7e1"></path><path d="M4.24 3.69c.22-.21-.17-1-.87-1.71S1.62.57 1.4.78s.47 1.21 1.17 2S4 3.9 4.24 3.69z" fill="#02c4e2"></path><path d="M4.32 3.69c.22-.21-.16-1-.85-1.72S1.73.56 1.51.77 2 2 2.66 2.72s1.43 1.18 1.66.97z" fill="#02c1e2"></path><path d="M4.39 3.69c.22-.2-.15-1-.83-1.72S1.85.55 1.62.76s.44 1.2 1.13 2 1.42 1.14 1.64.93z" fill="#03bee2"></path><path d="M4.46 3.69c.23-.2-.14-1-.81-1.73S2 .54 1.73.75s.43 1.2 1.1 2 1.41 1.14 1.63.94z" fill="#03bbe3"></path><path d="M4.54 3.69c.23-.2-.13-1-.79-1.73S2.07.53 1.85.73s.41 1.19 1.08 2 1.38 1.16 1.61.96z" fill="#03b8e3"></path><path d="M4.61 3.69c.23-.2-.12-1-.78-1.73S2.19.52 2 .72s.4 1.19 1.05 2 1.33 1.17 1.56.97z" fill="#03b5e4"></path><path d="M4.68 3.69c.23-.19-.11-1-.76-1.74S2.3.51 2.07.71s.38 1.18 1 2 1.39 1.18 1.61.98z" fill="#04b2e4"></path><path d="M4.76 3.69C5 3.5 4.66 2.72 4 2S2.41.5 2.18.69s.36 1.18 1 2 1.35 1.2 1.58 1z" fill="#04afe5"></path><path d="M4.83 3.69c.23-.19-.09-1-.72-1.75S2.53.49 2.29.68s.35 1.17 1 2 1.31 1.2 1.54 1.01z" fill="#04ace5"></path><path d="M4.91 3.7c.23-.19-.08-1-.7-1.75S2.64.48 2.41.67s.33 1.17 1 2 1.26 1.21 1.5 1.03z" fill="#05a8e6"></path><path d="M5 3.7c.24-.18-.07-1-.68-1.76S2.75.47 2.52.65s.32 1.16.93 2S4.75 3.88 5 3.7z" fill="#05a5e6"></path><path d="M5.05 3.7c.24-.18-.06-1-.66-1.76S2.87.46 2.63.64s.3 1.16.91 2S4.82 3.88 5.05 3.7z" fill="#05a2e7"></path><path d="M5.13 3.7c.24-.18 0-1-.64-1.76S3 .45 2.74.63s.29 1.15.88 2S4.89 3.88 5.13 3.7z" fill="#059fe7"></path><path d="M5.2 3.7c.24-.17 0-1-.62-1.77S3.09.44 2.86.61s.27 1.15.86 2S5 3.87 5.2 3.7z" fill="#069ce7"></path><path d="M5.28 3.7c.24-.17 0-1-.6-1.77S3.21.43 3 .6s.26 1.14.83 2S5 3.87 5.28 3.7z" fill="#0699e8"></path><path d="M5.35 3.7c.24-.17 0-1-.58-1.78S3.32.42 3.08.59s.24 1.14.81 2S5.11 3.87 5.35 3.7z" fill="#0696e8"></path><path d="M5.42 3.7c.24-.17 0-1-.56-1.78S3.44.41 3.19.57s.23 1.13.78 2 1.21 1.3 1.45 1.13z" fill="#0693e9"></path><path d="M5.5 3.7c.25-.16 0-1-.54-1.78S3.55.4 3.3.56s.21 1.13.76 2S5.25 3.87 5.5 3.7z" fill="#0790e9"></path><path d="M5.57 3.7c.25-.16 0-1-.53-1.79S3.66.38 3.42.55s.2 1.12.74 2S5.32 3.86 5.57 3.7z" fill="#078dea"></path><path d="M5.64 3.7c.25-.16 0-1-.51-1.79S3.78.37 3.53.53s.18 1.12.71 2S5.4 3.86 5.64 3.7z" fill="#078aea"></path><path d="M5.72 3.7c.25-.16 0-1-.49-1.8S3.89.36 3.64.52s.17 1.12.69 2S5.47 3.86 5.72 3.7z" fill="#0886eb"></path><path d="M5.79 3.71c.25-.15 0-1-.47-1.8S4 .35 3.75.51s.15 1.11.66 2 1.13 1.35 1.38 1.2z" fill="#0883eb"></path><path d="M5.87 3.71c.25-.15.05-1-.45-1.8S4.12.34 3.86.49s.14 1.1.64 2 1.11 1.36 1.37 1.22z" fill="#0880eb"></path><path d="M5.94 3.71c.25-.15.06-1-.43-1.81S4.23.33 4 .48s.12 1.1.61 2 1.07 1.37 1.33 1.23z" fill="#087dec"></path><path d="M6 3.71c.26-.14.07-1-.41-1.81S4.34.32 4.09.47s.11 1.09.59 2S5.76 3.85 6 3.71z" fill="#097aec"></path><path d="M6.09 3.71c.26-.14.08-1-.39-1.82S4.46.31 4.2.45s.09 1.09.56 2 1.07 1.4 1.33 1.26z" fill="#0977ed"></path><path d="M6.16 3.71c.26-.14.09-1-.37-1.82S4.57.3 4.31.44s.08 1.09.54 2S5.9 3.85 6.16 3.71z" fill="#0974ed"></path><path d="M6.23 3.71c.26-.14.1-1-.35-1.82S4.69.29 4.42.43s.06 1.08.52 2S6 3.84 6.23 3.71z" fill="#0971ee"></path><path d="M6.31 3.71c.26-.13.11-1-.33-1.83S4.8.28 4.54.41s0 1.08.49 2S6 3.84 6.31 3.71z" fill="#0a6eee"></path><path d="M6.38 3.71c.26-.13.12-1-.31-1.83S4.91.27 4.65.4s0 1.07.47 2 1 1.44 1.26 1.31z" fill="#0a6bef"></path><path d="M6.46 3.71c.27-.13.13-.95-.29-1.83S5 .26 4.76.39s0 1.07.44 2 .99 1.45 1.26 1.32z" fill="#0a68ef"></path><path d="M6.53 3.71c.27-.12.14-.95-.27-1.84S5.14.25 4.87.37s0 1.06.42 2 .97 1.47 1.24 1.34z" fill="#0a65ef"></path><path d="M6.6 3.71c.27-.12.15-.95-.26-1.84S5.25.24 5 .36s0 1.05.39 2 .95 1.48 1.21 1.35z" fill="#0b61f0"></path><path d="M6.68 3.71c.27-.12.16-.95-.24-1.85S5.37.23 5.1.35s0 1.05.37 2 .94 1.48 1.21 1.36z" fill="#0b5ef0"></path><path d="M6.75 3.71c.27-.12.17-.95-.22-1.85S5.48.22 5.21.33s0 1 .34 2 .93 1.5 1.2 1.38z" fill="#0b5bf1"></path><path d="M6.83 3.72c.27-.11.18-.94-.2-1.86S5.59.21 5.32.32s-.06 1 .32 2 .91 1.51 1.19 1.4z" fill="#0c58f1"></path><path d="M6.9 3.72c.27-.11.19-.94-.18-1.86S5.71.2 5.43.31s-.08 1 .3 2 .89 1.52 1.17 1.41z" fill="#0c55f2"></path><path d="M7 3.72c.28-.11.2-.94-.16-1.86S5.82.18 5.54.29s-.09 1 .27 2S6.7 3.83 7 3.72z" fill="#0c52f2"></path><path d="M7 3.72c.28-.11.21-.94-.14-1.87S5.93.18 5.66.28s-.11 1 .25 2S6.77 3.82 7 3.72z" fill="#0c4ff3"></path><path d="M7.12 3.72c.28-.1.22-.94-.12-1.87S6 .17 5.77.27s-.12 1 .22 2 .85 1.55 1.13 1.45z" fill="#0d4cf3"></path><path d="M7.19 3.72c.28-.1.23-.94-.1-1.88S6.16.15 5.88.25s-.14 1 .2 2 .83 1.57 1.11 1.47z" fill="#0d49f3"></path><path d="M7.27 3.72c.28-.1.24-.94-.08-1.88S6.27.14 6 .24s-.15 1 .17 2S7 3.82 7.27 3.72z" fill="#0d46f4"></path><path d="M7.34 3.72c.28-.09.25-.94-.06-1.88S6.39.13 6.11.23s-.17 1 .15 2 .8 1.59 1.08 1.49z" fill="#0d43f4"></path><path d="M7.42 3.72c.29-.09.26-.94 0-1.89S6.5.12 6.22.21s-.18 1 .13 2 .78 1.6 1.07 1.51z" fill="#0e3ff5"></path><path d="M7.49 3.72c.29-.09.27-.94 0-1.89S6.62.11 6.33.2s-.2 1 .1 2 .77 1.61 1.06 1.52z" fill="#0e3cf5"></path><path d="M7.56 3.72c.29-.09.28-.93 0-1.9S6.73.1 6.44.19s-.21 1 .08 2 .76 1.62 1.04 1.53z" fill="#0e39f6"></path><path d="M7.64 3.72c.29-.08.29-.94 0-1.9S6.84.09 6.55.18s-.23 1 .05 2 .75 1.63 1.04 1.54z" fill="#0f36f6"></path><path d="M7.71 3.72c.29-.08.3-.93 0-1.9S7 .08 6.67.16s-.25 1 0 2 .75 1.65 1.04 1.56z" fill="#0f33f7"></path><path d="M7.78 3.72c.29-.08.31-.93.05-1.91S7.07.07 6.78.15s-.26 1 0 2 .71 1.65 1 1.57z" fill="#0f30f7"></path><path d="M7.86 3.72c.29-.08.32-.93.07-1.91S7.18.06 6.89.13s-.28 1 0 2 .68 1.67.97 1.59z" fill="#0f2df8"></path><path d="M7.93 3.73c.29-.07.33-.93.09-1.92S7.3 0 7 .12s-.29 1 0 2 .64 1.68.93 1.61z" fill="#102af8"></path><path d="M8 3.73c.3-.07.34-.93.11-1.92s-.7-1.81-1-1.7-.31 1-.07 2S7.71 3.8 8 3.73z" fill="#1027f8"></path><path d="M8.08 3.73c.3-.07.36-.93.13-1.92S7.52 0 7.23.09s-.32 1-.09 2 .64 1.71.94 1.64z" fill="#1024f9"></path><path d="M8.15 3.73c.3-.06.36-.93.15-1.93S7.64 0 7.34.08 7 1 7.22 2s.63 1.79.93 1.73z" fill="#1021f9"></path><path d="M8.23 3.73c.3-.06.38-.93.17-1.93S7.75 0 7.45.07 7.1 1 7.31 2s.62 1.79.92 1.73z" fill="#111dfa"></path><path d="M8.3 3.73c.3-.06.38-.93.19-1.94S7.86 0 7.56.06 7.2 1 7.4 2s.6 1.79.9 1.73z" fill="#111afa"></path><path d="M8.37 3.73c.3-.06.4-.92.21-1.94S8 0 7.67 0s-.38 1-.19 2 .59 1.79.89 1.73z" fill="#1117fb"></path><ellipse cx="8.12" cy="1.88" rx=".56" ry="1.88" transform="rotate(-10.13 8.136 1.858)" fill="#1114fb"></ellipse><ellipse cx="8.21" cy="1.87" rx=".56" ry="1.88" transform="rotate(-9.52 8.186 1.89)" fill="#1211fc"></ellipse><ellipse cx="8.3" cy="1.87" rx=".56" ry="1.89" transform="rotate(-8.92 8.303 1.873)" fill="#120efc"></ellipse><ellipse cx="8.37" cy="1.87" rx=".56" ry="1.88" transform="rotate(-8.3 8.386 1.855)" fill="#130efb"></ellipse><ellipse cx="8.43" cy="1.87" rx=".56" ry="1.87" transform="rotate(-7.69 8.396 1.835)" fill="#140ffa"></ellipse><ellipse cx="8.49" cy="1.87" rx=".56" ry="1.86" transform="rotate(-7.06 8.507 1.908)" fill="#150ff9"></ellipse><ellipse cx="8.55" cy="1.87" rx=".55" ry="1.86" transform="rotate(-6.43 8.554 1.91)" fill="#1610f7"></ellipse><ellipse cx="8.61" cy="1.87" rx=".55" ry="1.85" transform="rotate(-5.79 8.63 1.824)" fill="#1710f6"></ellipse><ellipse cx="8.67" cy="1.87" rx=".55" ry="1.84" transform="rotate(-5.15 8.718 1.84)" fill="#1811f5"></ellipse><ellipse cx="8.73" cy="1.87" rx=".55" ry="1.83" transform="rotate(-4.5 8.72 1.872)" fill="#1811f4"></ellipse><ellipse cx="8.8" cy="1.87" rx=".55" ry="1.83" transform="rotate(-3.85 8.722 1.931)" fill="#1912f3"></ellipse><ellipse cx="8.86" cy="1.87" rx=".54" ry="1.82" transform="rotate(-3.2 8.905 1.861)" fill="#1a12f2"></ellipse><ellipse cx="8.92" cy="1.87" rx=".54" ry="1.81" transform="rotate(-2.54 8.986 1.779)" fill="#1b12f1"></ellipse><ellipse cx="8.98" cy="1.87" rx=".54" ry="1.81" transform="rotate(-1.86 8.902 1.993)" fill="#1c13ef"></ellipse><ellipse cx="9.04" cy="1.87" rx=".54" ry="1.8" transform="rotate(-1.2 9.052 2.005)" fill="#1d13ee"></ellipse><ellipse cx="9.1" cy="1.87" rx=".54" ry="1.8" transform="rotate(-.53 8.638 2.202)" fill="#1e14ed"></ellipse><ellipse cx="9.17" cy="1.87" rx="1.79" ry=".54" transform="rotate(-89.84 9.165 1.87)" fill="#1f14ec"></ellipse><ellipse cx="9.23" cy="1.87" rx="1.79" ry=".53" transform="rotate(-89.17 9.23 1.867)" fill="#2015eb"></ellipse><ellipse cx="9.29" cy="1.87" rx="1.78" ry=".53" transform="rotate(-88.48 9.29 1.863)" fill="#2115ea"></ellipse><ellipse cx="9.35" cy="1.87" rx="1.78" ry=".53" transform="rotate(-87.8 9.348 1.87)" fill="#2216e8"></ellipse><ellipse cx="9.41" cy="1.87" rx="1.77" ry=".53" transform="rotate(-87.09 9.411 1.866)" fill="#2316e7"></ellipse><ellipse cx="9.47" cy="1.87" rx="1.77" ry=".53" transform="rotate(-86.41 9.472 1.863)" fill="#2417e6"></ellipse><ellipse cx="9.53" cy="1.87" rx="1.76" ry=".53" transform="rotate(-85.71 9.537 1.87)" fill="#2517e5"></ellipse><ellipse cx="9.6" cy="1.87" rx="1.76" ry=".53" transform="rotate(-85 9.594 1.865)" fill="#2517e4"></ellipse><ellipse cx="9.66" cy="1.87" rx="1.76" ry=".53" transform="rotate(-84.31 9.655 1.867)" fill="#2618e3"></ellipse><ellipse cx="9.72" cy="1.87" rx="1.76" ry=".52" transform="rotate(-83.59 9.721 1.868)" fill="#2718e2"></ellipse><ellipse cx="9.78" cy="1.87" rx="1.75" ry=".52" transform="rotate(-82.89 9.781 1.865)" fill="#2819e0"></ellipse><ellipse cx="9.84" cy="1.87" rx="1.75" ry=".52" transform="rotate(-82.17 9.84 1.866)" fill="#2919df"></ellipse><ellipse cx="9.9" cy="1.87" rx="1.75" ry=".52" transform="rotate(-81.46 9.903 1.863)" fill="#2a1ade"></ellipse><ellipse cx="9.97" cy="1.87" rx="1.75" ry=".52" transform="rotate(-80.75 9.963 1.866)" fill="#2b1add"></ellipse><ellipse cx="10.03" cy="1.87" rx="1.74" ry=".52" transform="rotate(-80.02 10.028 1.868)" fill="#2c1bdc"></ellipse><ellipse cx="10.09" cy="1.87" rx="1.74" ry=".52" transform="rotate(-79.3 10.086 1.866)" fill="#2d1bdb"></ellipse><ellipse cx="10.15" cy="1.87" rx="1.74" ry=".52" transform="rotate(-78.59 10.15 1.87)" fill="#2e1bda"></ellipse><ellipse cx="10.21" cy="1.87" rx="1.74" ry=".52" transform="rotate(-77.87 10.212 1.868)" fill="#2f1cd8"></ellipse><ellipse cx="10.27" cy="1.87" rx="1.74" ry=".52" transform="rotate(-77.15 10.276 1.867)" fill="#301cd7"></ellipse><ellipse cx="10.33" cy="1.87" rx="1.74" ry=".52" transform="rotate(-76.43 10.335 1.873)" fill="#311dd6"></ellipse><ellipse cx="10.4" cy="1.87" rx="1.74" ry=".52" transform="rotate(-75.71 10.395 1.867)" fill="#311dd5"></ellipse><ellipse cx="10.46" cy="1.87" rx="1.74" ry=".52" transform="rotate(-74.99 10.457 1.862)" fill="#321ed4"></ellipse><ellipse cx="10.52" cy="1.87" rx="1.74" ry=".52" transform="rotate(-74.26 10.523 1.868)" fill="#331ed3"></ellipse><ellipse cx="10.58" cy="1.87" rx="1.74" ry=".52" transform="rotate(-73.7 10.555 1.885)" fill="#341fd1"></ellipse><ellipse cx="10.64" cy="1.87" rx="1.74" ry=".52" transform="rotate(-72.82 10.643 1.862)" fill="#351fd0"></ellipse><ellipse cx="10.7" cy="1.87" rx="1.74" ry=".52" transform="rotate(-72.11 10.705 1.866)" fill="#361fcf"></ellipse><ellipse cx="10.77" cy="1.87" rx="1.75" ry=".52" transform="rotate(-71.4 10.761 1.866)" fill="#3720ce"></ellipse><ellipse cx="10.83" cy="1.87" rx="1.75" ry=".52" transform="rotate(-70.68 10.828 1.87)" fill="#3820cd"></ellipse><ellipse cx="10.89" cy="1.87" rx="1.75" ry=".52" transform="rotate(-69.97 10.888 1.872)" fill="#3921cc"></ellipse><ellipse cx="10.95" cy="1.87" rx="1.75" ry=".52" transform="rotate(-69.25 10.951 1.873)" fill="#3a21cb"></ellipse><ellipse cx="11.01" cy="1.87" rx="1.76" ry=".52" transform="rotate(-68.55 11.01 1.863)" fill="#3b22c9"></ellipse><ellipse cx="11.07" cy="1.87" rx="1.76" ry=".53" transform="rotate(-67.84 11.076 1.866)" fill="#3c22c8"></ellipse><ellipse cx="11.13" cy="1.87" rx="1.76" ry=".53" transform="rotate(-67.13 11.136 1.864)" fill="#3d23c7"></ellipse><ellipse cx="11.2" cy="1.87" rx="1.76" ry=".53" transform="rotate(-66.43 11.195 1.864)" fill="#3d23c6"></ellipse><ellipse cx="11.26" cy="1.87" rx="1.77" ry=".53" transform="rotate(-65.73 11.257 1.865)" fill="#3e23c5"></ellipse><ellipse cx="11.32" cy="1.87" rx="1.77" ry=".53" transform="rotate(-65.03 11.32 1.866)" fill="#3f24c4"></ellipse><ellipse cx="11.38" cy="1.87" rx="1.78" ry=".53" transform="rotate(-64.34 11.383 1.868)" fill="#4024c3"></ellipse><ellipse cx="11.44" cy="1.87" rx="1.78" ry=".53" transform="rotate(-63.65 11.44 1.867)" fill="#4125c1"></ellipse><ellipse cx="11.5" cy="1.87" rx="1.79" ry=".53" transform="rotate(-62.97 11.506 1.871)" fill="#4225c0"></ellipse><ellipse cx="11.57" cy="1.87" rx="1.79" ry=".54" transform="rotate(-62.3 11.568 1.864)" fill="#4326bf"></ellipse><ellipse cx="11.63" cy="1.87" rx="1.8" ry=".54" transform="rotate(-61.61 11.63 1.865)" fill="#4426be"></ellipse><ellipse cx="11.69" cy="1.87" rx="1.8" ry=".54" transform="rotate(-60.92 11.695 1.866)" fill="#4527bd"></ellipse><ellipse cx="11.75" cy="1.87" rx="1.81" ry=".54" transform="rotate(-60.27 11.745 1.866)" fill="#4627bc"></ellipse><ellipse cx="11.81" cy="1.87" rx="1.81" ry=".54" transform="rotate(-59.61 11.813 1.863)" fill="#4728ba"></ellipse><ellipse cx="11.87" cy="1.87" rx="1.82" ry=".54" transform="rotate(-58.94 11.87 1.863)" fill="#4828b9"></ellipse><ellipse cx="11.93" cy="1.87" rx="1.83" ry=".55" transform="rotate(-58.28 11.936 1.87)" fill="#4928b8"></ellipse><ellipse cx="12" cy="1.87" rx="1.83" ry=".55" transform="rotate(-57.63 11.998 1.864)" fill="#4a29b7"></ellipse><ellipse cx="12.06" cy="1.87" rx="1.84" ry=".55" transform="rotate(-57.3 12.003 1.907)" fill="#4a29b6"></ellipse><ellipse cx="12.12" cy="1.87" rx="1.85" ry=".55" transform="rotate(-56.35 12.119 1.866)" fill="#4b2ab5"></ellipse><ellipse cx="12.18" cy="1.87" rx="1.86" ry=".55" transform="rotate(-55.71 12.179 1.873)" fill="#4c2ab4"></ellipse><ellipse cx="12.24" cy="1.87" rx="1.86" ry=".56" transform="rotate(-55.08 12.244 1.872)" fill="#4d2bb2"></ellipse><ellipse cx="12.3" cy="1.87" rx="1.87" ry=".56" transform="rotate(-54.46 12.299 1.868)" fill="#4e2bb1"></ellipse><ellipse cx="12.37" cy="1.87" rx="1.88" ry=".56" transform="rotate(-53.8 12.336 1.849)" fill="#4f2cb0"></ellipse><ellipse cx="12.43" cy="1.87" rx="1.89" ry=".56" transform="rotate(-53.22 12.424 1.867)" fill="#502caf"></ellipse><ellipse cx="12.45" cy="1.91" rx="1.87" ry=".56" transform="rotate(-52.42 12.446 1.913)" fill="#512caf"></ellipse><ellipse cx="12.46" cy="1.95" rx="1.85" ry=".55" transform="rotate(-51.6 12.47 1.945)" fill="#512caf"></ellipse><ellipse cx="12.48" cy="1.99" rx="1.84" ry=".55" transform="matrix(.63 -.77 .77 .63 3.05 10.4)" fill="#522caf"></ellipse><ellipse cx="12.5" cy="2.03" rx="1.82" ry=".54" transform="rotate(-49.9 12.498 2.023)" fill="#532caf"></ellipse><ellipse cx="12.52" cy="2.07" rx="1.8" ry=".54" transform="rotate(-49.03 12.514 2.065)" fill="#532baf"></ellipse><ellipse cx="12.54" cy="2.11" rx="1.79" ry=".53" transform="rotate(-48.14 12.538 2.11)" fill="#542baf"></ellipse><ellipse cx="12.55" cy="2.15" rx="1.77" ry=".53" transform="rotate(-47.24 12.556 2.154)" fill="#552baf"></ellipse><ellipse cx="12.57" cy="2.19" rx="1.75" ry=".52" transform="rotate(-46.31 12.577 2.184)" fill="#552baf"></ellipse><ellipse cx="12.59" cy="2.23" rx="1.74" ry=".52" transform="rotate(-45.37 12.587 2.226)" fill="#562baf"></ellipse><ellipse cx="12.61" cy="2.27" rx="1.73" ry=".52" transform="rotate(-44.42 12.607 2.261)" fill="#572baf"></ellipse><ellipse cx="12.63" cy="2.31" rx="1.71" ry=".51" transform="rotate(-43.46 12.632 2.301)" fill="#582baf"></ellipse><ellipse cx="12.65" cy="2.35" rx="1.7" ry=".51" transform="rotate(-42.49 12.65 2.342)" fill="#582bae"></ellipse><ellipse cx="12.66" cy="2.39" rx="1.69" ry=".5" transform="rotate(-41.49 12.667 2.383)" fill="#592bae"></ellipse><ellipse cx="12.68" cy="2.43" rx="1.67" ry=".5" transform="rotate(-40.47 12.68 2.425)" fill="#5a2bae"></ellipse><ellipse cx="12.7" cy="2.47" rx="1.66" ry=".5" transform="rotate(-39.44 12.703 2.46)" fill="#5a2aae"></ellipse><ellipse cx="12.72" cy="2.51" rx="1.65" ry=".49" transform="rotate(-38.4 12.713 2.511)" fill="#5b2aae"></ellipse><ellipse cx="12.74" cy="2.55" rx="1.64" ry=".49" transform="rotate(-37.35 12.74 2.542)" fill="#5c2aae"></ellipse><ellipse cx="12.75" cy="2.59" rx="1.63" ry=".49" transform="rotate(-36.29 12.752 2.59)" fill="#5c2aae"></ellipse><ellipse cx="12.77" cy="2.62" rx="1.62" ry=".48" transform="rotate(-35.21 12.78 2.633)" fill="#5d2aae"></ellipse><ellipse cx="12.79" cy="2.66" rx="1.61" ry=".48" transform="rotate(-34.11 12.79 2.658)" fill="#5e2aae"></ellipse><ellipse cx="12.81" cy="2.7" rx="1.6" ry=".48" transform="rotate(-33 12.803 2.71)" fill="#5e2aae"></ellipse><ellipse cx="12.83" cy="2.74" rx="1.6" ry=".48" transform="rotate(-31.89 12.828 2.737)" fill="#5f2aae"></ellipse><ellipse cx="12.85" cy="2.78" rx="1.59" ry=".47" transform="rotate(-30.77 12.837 2.79)" fill="#602aae"></ellipse><ellipse cx="12.86" cy="2.82" rx="1.58" ry=".47" transform="rotate(-29.63 12.868 2.817)" fill="#6029ae"></ellipse><ellipse cx="12.88" cy="2.86" rx="1.58" ry=".47" transform="rotate(-28.47 12.886 2.87)" fill="#6129ae"></ellipse><ellipse cx="12.9" cy="2.9" rx="1.57" ry=".47" transform="rotate(-27.34 12.903 2.899)" fill="#6229ae"></ellipse><ellipse cx="12.92" cy="2.94" rx="1.57" ry=".47" transform="rotate(-26.15 12.932 2.935)" fill="#6329ae"></ellipse><ellipse cx="12.94" cy="2.98" rx="1.56" ry=".47" transform="rotate(-25 12.943 2.988)" fill="#6329ae"></ellipse><ellipse cx="12.95" cy="3.02" rx="1.56" ry=".47" transform="rotate(-23.84 12.943 3.03)" fill="#6429ae"></ellipse><ellipse cx="12.97" cy="3.06" rx="1.56" ry=".46" transform="rotate(-22.66 12.961 3.064)" fill="#6529ae"></ellipse><ellipse cx="12.99" cy="3.1" rx="1.55" ry=".46" transform="rotate(-21.48 12.986 3.091)" fill="#6529ae"></ellipse><ellipse cx="13.01" cy="3.14" rx="1.55" ry=".46" transform="rotate(-20.3 13.014 3.137)" fill="#6629ae"></ellipse><ellipse cx="13.03" cy="3.18" rx="1.55" ry=".46" transform="rotate(-19.11 13.028 3.17)" fill="#6729ae"></ellipse><ellipse cx="13.05" cy="3.22" rx="1.55" ry=".46" transform="rotate(-17.93 13.036 3.226)" fill="#6728ad"></ellipse><ellipse cx="13.06" cy="3.26" rx="1.55" ry=".46" transform="rotate(-16.75 13.05 3.275)" fill="#6828ad"></ellipse><ellipse cx="13.08" cy="3.3" rx="1.55" ry=".46" transform="matrix(.96 -.27 .27 .96 -.41 3.63)" fill="#6928ad"></ellipse><ellipse cx="13.1" cy="3.34" rx="1.56" ry=".46" transform="rotate(-14.38 13.107 3.345)" fill="#6928ad"></ellipse><ellipse cx="13.12" cy="3.38" rx="1.56" ry=".47" transform="rotate(-13.2 13.095 3.398)" fill="#6a28ad"></ellipse><ellipse cx="13.14" cy="3.42" rx="1.56" ry=".47" transform="rotate(-12.05 13.15 3.4)" fill="#6b28ad"></ellipse><ellipse cx="13.15" cy="3.46" rx="1.57" ry=".47" transform="rotate(-10.87 13.138 3.477)" fill="#6b28ad"></ellipse><ellipse cx="13.17" cy="3.5" rx="1.57" ry=".47" transform="rotate(-9.73 13.194 3.49)" fill="#6c28ad"></ellipse><ellipse cx="13.19" cy="3.54" rx="1.58" ry=".47" transform="rotate(-8.55 13.188 3.542)" fill="#6d28ad"></ellipse><ellipse cx="13.21" cy="3.58" rx="1.58" ry=".47" transform="rotate(-7.41 13.183 3.568)" fill="#6e28ad"></ellipse><ellipse cx="13.23" cy="3.62" rx="1.59" ry=".47" transform="rotate(-6.28 13.238 3.652)" fill="#6e27ad"></ellipse><ellipse cx="13.25" cy="3.66" rx="1.6" ry=".48" transform="matrix(1 -.09 .09 1 -.28 1.21)" fill="#6f27ad"></ellipse><ellipse cx="13.26" cy="3.7" rx="1.6" ry=".48" transform="rotate(-4.03 13.244 3.739)" fill="#7027ad"></ellipse><ellipse cx="13.28" cy="3.74" rx="1.61" ry=".48" transform="rotate(-2.92 13.255 3.675)" fill="#7027ad"></ellipse><ellipse cx="13.3" cy="3.78" rx="1.62" ry=".48" transform="rotate(-1.85 13.261 3.621)" fill="#7127ad"></ellipse><ellipse cx="13.32" cy="3.82" rx="1.63" ry=".49" transform="rotate(-.77 13.369 3.81)" fill="#7227ad"></ellipse><ellipse cx="13.34" cy="3.86" rx=".49" ry="1.64" transform="rotate(-89.69 13.332 3.86)" fill="#7227ad"></ellipse><ellipse cx="13.35" cy="3.9" rx=".49" ry="1.65" transform="rotate(-88.64 13.356 3.9)" fill="#7327ad"></ellipse><ellipse cx="13.37" cy="3.94" rx=".5" ry="1.66" transform="rotate(-87.61 13.375 3.94)" fill="#7427ad"></ellipse><ellipse cx="13.39" cy="3.98" rx=".5" ry="1.67" transform="rotate(-86.57 13.393 3.979)" fill="#7426ad"></ellipse><ellipse cx="13.41" cy="4.02" rx=".5" ry="1.69" transform="rotate(-85.55 13.41 4.022)" fill="#7526ad"></ellipse><ellipse cx="13.43" cy="4.06" rx=".51" ry="1.7" transform="rotate(-84.56 13.425 4.06)" fill="#7626ad"></ellipse><ellipse cx="13.45" cy="4.1" rx=".51" ry="1.71" transform="rotate(-83.58 13.445 4.097)" fill="#7626ac"></ellipse><ellipse cx="13.46" cy="4.14" rx=".52" ry="1.73" transform="rotate(-82.5 13.488 4.146)" fill="#7726ac"></ellipse><ellipse cx="13.48" cy="4.18" rx=".52" ry="1.74" transform="rotate(-81.68 13.481 4.175)" fill="#7826ac"></ellipse><ellipse cx="13.5" cy="4.22" rx=".52" ry="1.76" transform="rotate(-80.73 13.497 4.218)" fill="#7926ac"></ellipse><ellipse cx="13.52" cy="4.26" rx=".53" ry="1.77" transform="rotate(-79.8 13.517 4.26)" fill="#7926ac"></ellipse><ellipse cx="13.54" cy="4.3" rx=".53" ry="1.79" transform="rotate(-78.9 13.533 4.298)" fill="#7a26ac"></ellipse><ellipse cx="13.55" cy="4.34" rx=".54" ry="1.8" transform="rotate(-78.02 13.558 4.338)" fill="#7b26ac"></ellipse><ellipse cx="13.57" cy="4.38" rx=".54" ry="1.82" transform="rotate(-77.15 13.577 4.377)" fill="#7b25ac"></ellipse><ellipse cx="13.59" cy="4.42" rx=".55" ry="1.84" transform="rotate(-76.29 13.59 4.414)" fill="#7c25ac"></ellipse><ellipse cx="13.61" cy="4.46" rx=".55" ry="1.85" transform="rotate(-75.44 13.608 4.46)" fill="#7d25ac"></ellipse><ellipse cx="13.63" cy="4.5" rx=".56" ry="1.87" transform="rotate(-74.62 13.626 4.493)" fill="#7d25ac"></ellipse><ellipse cx="13.64" cy="4.54" rx=".56" ry="1.89" transform="rotate(-73.82 13.644 4.542)" fill="#7e25ac"></ellipse><ellipse cx="13.61" cy="4.55" rx=".56" ry="1.88" transform="rotate(-73.25 13.609 4.55)" fill="#8025ab"></ellipse><ellipse cx="13.58" cy="4.57" rx=".56" ry="1.86" transform="rotate(-72.66 13.574 4.577)" fill="#8124ab"></ellipse><ellipse cx="13.54" cy="4.59" rx=".56" ry="1.85" transform="rotate(-72.07 13.543 4.587)" fill="#8324aa"></ellipse><ellipse cx="13.51" cy="4.61" rx=".55" ry="1.84" transform="rotate(-71.47 13.51 4.605)" fill="#8424aa"></ellipse><ellipse cx="13.47" cy="4.62" rx=".55" ry="1.83" transform="rotate(-70.85 13.467 4.625)" fill="#8623a9"></ellipse><path d="M11.72 4c-.1.28.58.79 1.52 1.13s1.8.39 1.9.1-.58-.79-1.52-1.13-1.79-.36-1.9-.1z" fill="#8723a9"></path><path d="M11.71 4c-.11.28.56.79 1.5 1.14s1.78.4 1.89.12-.56-.79-1.5-1.14-1.79-.37-1.89-.12z" fill="#8923a8"></path><path d="M11.69 4c-.11.28.55.79 1.48 1.15s1.77.42 1.88.14-.55-.79-1.48-1.15-1.77-.39-1.88-.14z" fill="#8b22a8"></path><path d="M11.67 4c-.11.28.54.79 1.45 1.16s1.75.44 1.87.16-.54-.79-1.46-1.16-1.75-.4-1.86-.16z" fill="#8c22a7"></path><path d="M11.65 4c-.12.27.52.8 1.43 1.17s1.74.45 1.85.18-.52-.8-1.43-1.17-1.73-.42-1.85-.18z" fill="#8e22a6"></path><path d="M11.63 4c-.12.27.51.8 1.41 1.18s1.72.47 1.84.2-.51-.8-1.41-1.18-1.72-.43-1.84-.2z" fill="#8f22a6"></path><path d="M11.62 4c-.12.27.5.8 1.39 1.19s1.71.49 1.83.22-.5-.8-1.39-1.19-1.71-.44-1.83-.22z" fill="#9121a5"></path><path d="M11.6 4c-.12.27.49.8 1.37 1.2s1.69.5 1.82.24-.49-.8-1.37-1.2-1.7-.46-1.82-.24z" fill="#9321a5"></path><path d="M11.58 4.05c-.13.26.47.8 1.34 1.21s1.68.52 1.81.26-.47-.8-1.34-1.21-1.68-.52-1.81-.26z" fill="#9421a4"></path><path d="M11.56 4.05c-.13.26.46.81 1.32 1.22s1.66.54 1.79.28-.46-.81-1.32-1.22-1.66-.54-1.79-.28z" fill="#9620a4"></path><path d="M11.54 4.05c-.13.26.45.81 1.3 1.23s1.65.55 1.78.3-.45-.81-1.3-1.23-1.64-.55-1.78-.3z" fill="#9720a3"></path><path d="M11.53 4.06c-.14.25.43.81 1.27 1.24s1.64.57 1.77.31-.43-.81-1.28-1.24-1.62-.57-1.76-.31z" fill="#9920a3"></path><path d="M11.51 4.06c-.14.25.42.81 1.25 1.25s1.62.59 1.76.34-.42-.81-1.25-1.25-1.62-.59-1.76-.34z" fill="#9a1fa2"></path><path d="M11.49 4.06c-.14.25.41.81 1.23 1.26s1.61.6 1.75.35-.41-.81-1.23-1.26-1.61-.6-1.75-.35z" fill="#9c1fa2"></path><path d="M11.47 4.07c-.15.25.4.82 1.21 1.27s1.59.62 1.74.37-.42-.82-1.21-1.27-1.59-.62-1.74-.37z" fill="#9e1fa1"></path><path d="M11.46 4.07c-.15.25.38.82 1.19 1.28s1.58.64 1.73.39-.38-.82-1.2-1.28-1.58-.64-1.72-.39z" fill="#9f1ea0"></path><path d="M11.44 4.07c-.15.24.37.82 1.16 1.29s1.56.65 1.71.41-.36-.77-1.16-1.29-1.56-.65-1.71-.41z" fill="#a11ea0"></path><path d="M11.42 4.07c-.15.24.36.82 1.14 1.3s1.55.67 1.7.43-.36-.82-1.14-1.3-1.54-.66-1.7-.43z" fill="#a21e9f"></path><path d="M11.4 4.08c-.16.24.34.82 1.12 1.31s1.53.69 1.69.45-.34-.84-1.12-1.31-1.53-.69-1.69-.45z" fill="#a41d9f"></path><path d="M11.38 4.08c-.16.23.33.83 1.1 1.32s1.52.71 1.68.47-.33-.83-1.1-1.32-1.52-.71-1.68-.47z" fill="#a61d9e"></path><path d="M11.37 4.08c-.16.23.32.83 1.07 1.33s1.5.72 1.67.49-.32-.82-1.11-1.33-1.47-.72-1.63-.49z" fill="#a71d9e"></path><path d="M11.35 4.09c-.17.23.3.83 1.05 1.34s1.49.74 1.65.51-.3-.83-1.05-1.34-1.48-.74-1.65-.51z" fill="#a91d9d"></path><path d="M11.33 4.09c-.17.23.29.83 1 1.35s1.5.75 1.67.56-.29-.83-1-1.35-1.5-.79-1.67-.56z" fill="#aa1c9d"></path><path d="M11.31 4.09c-.17.22.28.83 1 1.36s1.46.77 1.63.55-.28-.83-1-1.36-1.45-.77-1.63-.55z" fill="#ac1c9c"></path><path d="M11.29 4.09c-.18.22.27.84 1 1.37s1.44.79 1.62.57-.26-.84-1-1.37-1.44-.79-1.62-.57z" fill="#ad1c9b"></path><path d="M11.28 4.1c-.18.22.25.84 1 1.38s1.43.81 1.61.59-.25-.84-1-1.38-1.43-.81-1.61-.59z" fill="#af1b9b"></path><path d="M11.26 4.1c-.18.22.24.84.94 1.39s1.42.82 1.6.61-.24-.84-.94-1.39-1.42-.83-1.6-.61z" fill="#b11b9a"></path><path d="M11.24 4.1c-.18.21.23.84.92 1.4s1.4.84 1.58.63-.22-.84-.92-1.4-1.39-.84-1.58-.63z" fill="#b21b9a"></path><path d="M11.22 4.1c-.19.21.21.84.89 1.41s1.39.86 1.57.65-.21-.84-.89-1.41-1.38-.86-1.57-.65z" fill="#b41a99"></path><path d="M11.21 4.11c-.19.21.2.85.87 1.42s1.37.87 1.56.67-.2-.84-.87-1.42-1.37-.88-1.56-.67z" fill="#b51a99"></path><path d="M11.19 4.11c-.19.21.19.85.85 1.43s1.36.89 1.55.68-.19-.85-.85-1.43-1.36-.89-1.55-.68z" fill="#b71a98"></path><path d="M11.17 4.11c-.2.2.17.85.83 1.44s1.34.91 1.54.7-.17-.85-.83-1.44-1.34-.9-1.54-.7z" fill="#b91998"></path><path d="M11.15 4.12c-.2.2.16.85.8 1.45s1.33.93 1.53.72-.16-.85-.8-1.45-1.33-.92-1.53-.72z" fill="#ba1997"></path><path d="M11.13 4.12c-.2.2.15.85.78 1.46s1.31.94 1.51.74-.15-.85-.78-1.46-1.3-.94-1.51-.74z" fill="#bc1996"></path><path d="M11.12 4.12c-.21.2.13.86.76 1.47s1.3 1 1.5.76-.13-.86-.76-1.47-1.3-.95-1.5-.76z" fill="#bd1896"></path><path d="M11.1 4.12c-.21.19.12.86.74 1.48s1.28 1 1.49.78-.12-.86-.74-1.48-1.28-.97-1.49-.78z" fill="#bf1895"></path><path d="M11.08 4.13c-.21.19.11.86.71 1.49s1.27 1 1.48.8-.11-.86-.71-1.49-1.27-.99-1.48-.8z" fill="#c01895"></path><path d="M11.06 4.13c-.21.19.1.86.69 1.5s1.25 1 1.47.82-.09-.86-.69-1.5-1.25-1.01-1.47-.82z" fill="#c21894"></path><path d="M11 4.13c-.22.19.08.86.67 1.51s1.24 1 1.46.84-.04-.86-.63-1.48-1.24-1.05-1.5-.87z" fill="#c41794"></path><path d="M11 4.14c-.22.18.07.86.65 1.52s1.22 1 1.44.86S13 5.65 12.47 5 11.25 4 11 4.14z" fill="#c51793"></path><path d="M11 4.14c-.22.18.06.87.62 1.53s1.21 1.06 1.43.88S13 5.68 12.44 5 11.23 4 11 4.14z" fill="#c71793"></path><path d="M11 4.14c-.23.18 0 .87.6 1.54s1.19 1.08 1.42.9 0-.87-.6-1.54S11.22 4 11 4.14z" fill="#c81692"></path><path d="M11 4.14c-.23.17 0 .87.58 1.55s1.18 1.09 1.41.92 0-.87-.58-1.55S11.2 4 11 4.14z" fill="#ca1691"></path><path d="M11 4.15c-.23.17 0 .87.56 1.56s1.17 1.11 1.4.94 0-.87-.56-1.56S11.19 4 11 4.15z" fill="#cc1691"></path><path d="M10.94 4.15c-.23.17 0 .87.54 1.57s1.15 1.13 1.39 1 0-.87-.53-1.57-1.17-1.15-1.4-1z" fill="#cd1590"></path><path d="M10.92 4.15c-.24.17 0 .88.51 1.58s1.14 1.14 1.37 1 0-.88-.51-1.58-1.13-1.15-1.37-1z" fill="#cf1590"></path><path d="M10.9 4.16c-.24.16 0 .88.49 1.59s1.12 1.16 1.36 1 0-.88-.49-1.59-1.12-1.16-1.36-1z" fill="#d0158f"></path><path d="M10.88 4.16c-.24.16 0 .88.47 1.6s1.11 1.18 1.35 1 0-.88-.47-1.6-1.1-1.16-1.35-1z" fill="#d2148f"></path><path d="M10.86 4.16c-.25.16 0 .88.44 1.61s1.09 1.19 1.34 1 0-.88-.45-1.61-1.08-1.16-1.33-1z" fill="#d3148e"></path><path d="M10.85 4.16c-.25.16-.06.88.42 1.62S12.35 7 12.6 6.84s.06-.88-.42-1.62S11.1 4 10.85 4.16z" fill="#d5148e"></path><path d="M10.83 4.17c-.25.15-.07.89.4 1.63s1.06 1.2 1.31 1.07.07-.89-.4-1.63S11.08 4 10.83 4.17z" fill="#d7138d"></path><path d="M10.81 4.17c-.25.15-.09.89.38 1.64s1 1.25 1.3 1.09.09-.89-.38-1.64-1.04-1.26-1.3-1.09z" fill="#d8138d"></path><path d="M10.79 4.17c-.26.15-.1.89.36 1.65s1 1.26 1.29 1.11.1-.89-.36-1.65S11.05 4 10.79 4.17z" fill="#da138c"></path><path d="M10.77 4.18c-.26.15-.11.89.33 1.66s1 1.28 1.28 1.13.11-.89-.33-1.66S11 4 10.77 4.18z" fill="#db138b"></path><path d="M10.76 4.18c-.26.14-.13.89.31 1.67s1 1.3 1.27 1.15.13-.89-.31-1.67S11 4 10.76 4.18z" fill="#dd128b"></path><path d="M10.74 4.18c-.27.14-.14.9.29 1.68S12 7.18 12.28 7s.14-.9-.29-1.68S11 4 10.74 4.18z" fill="#df128a"></path><path d="M10.72 4.18c-.27.14-.15.9.27 1.69s1 1.33 1.24 1.19.15-.9-.27-1.69S11 4 10.72 4.18z" fill="#e0128a"></path><ellipse cx="11.44" cy="5.64" rx=".55" ry="1.63" transform="rotate(-26.86 11.448 5.633)" fill="#e21189"></ellipse><ellipse cx="11.41" cy="5.66" rx=".56" ry="1.64" transform="rotate(-26.1 11.415 5.669)" fill="#e31189"></ellipse><ellipse cx="11.37" cy="5.68" rx=".56" ry="1.65" transform="rotate(-25.33 11.367 5.687)" fill="#e51188"></ellipse><ellipse cx="11.34" cy="5.7" rx=".56" ry="1.65" transform="rotate(-24.59 11.329 5.69)" fill="#e61088"></ellipse><ellipse cx="11.3" cy="5.71" rx=".56" ry="1.66" transform="rotate(-23.83 11.296 5.7)" fill="#e81087"></ellipse></g></g></g></svg></svg> <!----></g></g> <g transform="translate(67,4.708259582519531)"><g data-gra="path-name" fill-rule="" class="tp-name iconsvg-namesvg" transform="translate(0,0)"><g transform="scale(1)"><g><path d="M39.08 2.81L39.08 2.81Q38.2 2.81 37.15 2.46L37.15 2.46Q31.45 0.44 27.63-3.38L27.63-3.38Q24.08-6.8 22.76-9.91L22.76-9.91Q20.18-2.68 8.29 2.19L8.29 2.19Q6.93 2.63 5.7 2.63L5.7 2.63Q3.68 2.63 2.94 1.45L2.94 1.45Q2.81 1.27 2.81 1.1L2.81 1.1Q2.81 0.79 3.16 0.44L3.16 0.44Q3.99-0.57 5.75-1.18L5.75-1.18Q11.58-3.73 14.82-7.68L14.82-7.68Q17.59-11.1 18.73-16.36L18.73-16.36 5.48-16.36Q2.63-16.36 2.63-18.2L2.63-18.2Q2.63-20 5.48-20L5.48-20 19.12-20Q19.17-20.88 19.17-29.74L19.17-29.74 5.48-29.74Q2.63-29.74 2.63-31.58L2.63-31.58Q2.63-33.38 5.48-33.38L5.48-33.38 39.34-33.38Q42.19-33.38 42.19-31.58L42.19-31.58Q42.19-29.74 39.34-29.74L39.34-29.74 25-29.74Q25-20.92 24.91-20L24.91-20 39.52-20Q42.37-20 42.37-18.2L42.37-18.2Q42.37-16.36 39.52-16.36L39.52-16.36 25.88-16.36Q29.96-4.74 39.65-1.1L39.65-1.1Q42.11-0.35 42.11 0.7L42.11 0.7Q42.11 1.05 41.84 1.4L41.84 1.4Q40.83 2.81 39.08 2.81ZM71.54 3.16L71.54 3.16Q68.68 3.16 68.68 1.36L68.68 1.36 68.68-3.2 59.47-3.2Q56.97-3.2 56.97-4.69L56.97-4.69Q56.97-6.14 59.47-6.14L59.47-6.14 68.68-6.14 68.68-9.91 61.49-9.91Q59.08-9.91 59.08-11.32L59.08-11.32Q59.08-12.68 61.49-12.68L61.49-12.68 68.68-12.68 68.68-16.14 61.97-16.14Q59.61-16.14 59.61-17.5L59.61-17.5Q59.61-18.82 61.97-18.82L61.97-18.82 68.68-18.82 68.68-22.72 59.82-22.72Q57.32-22.72 57.32-24.21L57.32-24.21Q57.32-25.66 59.82-25.66L59.82-25.66 68.68-25.66 68.68-29.47 62.11-29.47Q59.74-29.47 59.74-30.79L59.74-30.79Q59.74-32.11 62.11-32.11L62.11-32.11 68.68-32.11 68.68-34.74Q68.68-36.54 71.54-36.54L71.54-36.54Q74.39-36.54 74.39-34.74L74.39-34.74 74.39-32.11 80.83-32.11Q82.72-32.11 83.6-31.23 84.47-30.35 84.47-29.52L84.47-29.52 84.47-25.66 85.04-25.66Q87.54-25.66 87.54-24.21L87.54-24.21Q87.54-22.72 85.04-22.72L85.04-22.72 84.47-22.72 84.47-18.73Q84.47-17.89 83.6-17.02 82.72-16.14 80.83-16.14L80.83-16.14 74.39-16.14 74.39-12.68 82.81-12.68Q85.22-12.68 85.22-11.32L85.22-11.32Q85.22-9.91 82.81-9.91L82.81-9.91 74.39-9.91 74.39-6.14 84.61-6.14Q87.11-6.14 87.11-4.69L87.11-4.69Q87.11-3.2 84.61-3.2L84.61-3.2 74.39-3.2 74.39 1.36Q74.39 3.16 71.54 3.16ZM51.32 1.62L51.32 1.62Q50.26 1.62 48.82 0.61L48.82 0.61Q47.89-0.04 47.89-0.66L47.89-0.66Q47.89-0.92 48.03-1.14L48.03-1.14Q50.53-5.53 53.11-11.23L53.11-11.23Q53.86-12.89 55.13-12.89L55.13-12.89Q56.18-12.89 57.63-11.75L57.63-11.75Q58.38-11.14 58.38-10.61L58.38-10.61Q58.38-10.48 58.29-10.31L58.29-10.31Q56.05-4.96 53.51 0L53.51 0Q52.72 1.62 51.32 1.62ZM53.82-17.41L53.82-17.41Q52.76-17.41 51.36-18.6L51.36-18.6Q49.3-20.18 48.6-20.66L48.6-20.66 47.54-21.45Q46.93-21.89 46.93-22.37L46.93-22.37Q46.93-22.63 47.15-22.94L47.15-22.94Q48.07-24.21 49.3-24.21L49.3-24.21Q50.26-24.21 51.36-23.46L51.36-23.46Q56.8-19.87 56.8-19.52L56.8-19.52Q56.8-19.39 56.32-18.77L56.32-18.77Q55.35-17.41 53.82-17.41ZM74.39-18.82L78.82-18.82Q79.08-18.82 79.08-20.13L79.08-20.13 79.08-22.72 74.39-22.72 74.39-18.82ZM74.39-25.66L79.08-25.66 79.08-28.16Q79.08-29.47 78.82-29.47L78.82-29.47 74.39-29.47 74.39-25.66ZM56.36-28.42L56.36-28.42Q55.22-28.42 54.21-29.39L54.21-29.39 53.51-30 52.41-30.83Q51.45-31.62 50.04-32.63L50.04-32.63Q49.47-33.07 49.47-33.51L49.47-33.51Q49.47-33.86 49.78-34.21L49.78-34.21Q50.92-35.48 52.06-35.48L52.06-35.48Q52.81-35.48 53.6-34.96L53.6-34.96Q59.47-31.1 59.47-30.61L59.47-30.61Q59.47-30.44 58.9-29.78L58.9-29.78Q57.94-28.42 56.36-28.42ZM94.47 2.68L94.47 2.68Q93.64 2.68 92.54 2.06 91.45 1.45 91.45 1.14L91.45 1.14Q91.45 0.92 91.62 0.61L91.62 0.61Q93.55-4.17 93.77-14.91L93.77-14.91Q93.9-16.8 96.23-16.8L96.23-16.8Q98.95-16.8 98.95-15.31L98.95-15.31 98.95-15.22Q98.77-12.06 98.77-10.61L98.77-10.61Q100.09-6.49 100.39-6.23L100.39-6.23 100.39-20.18 94.74-20.18Q92.15-20.18 92.15-21.75L92.15-21.75Q92.15-23.29 94.74-23.29L94.74-23.29 99.74-23.29 99.74-28.6 95.57-28.6Q93.03-28.6 93.03-30.13L93.03-30.13Q93.03-31.62 95.57-31.62L95.57-31.62 99.74-31.62 99.74-34.96Q99.74-36.54 102.37-36.54L102.37-36.54Q105-36.54 105-34.96L105-34.96 105-31.62 108.95-31.62Q111.49-31.62 111.49-30.13L111.49-30.13Q111.49-28.6 108.95-28.6L108.95-28.6 105-28.6 105-23.29 110.13-23.29Q112.32-23.29 112.32-22.15L112.32-22.15 112.32-22.54Q115.57-24.52 116.71-31.84L116.71-31.84 113.73-31.84Q111.23-31.84 111.23-33.33L111.23-33.33Q111.23-34.78 113.73-34.78L113.73-34.78 128.07-34.78Q130.22-34.78 131.05-33.46L131.05-33.46Q131.54-32.68 131.54-31.05L131.54-31.05 131.49-30.04Q131.05-23.42 130.09-22.28L130.09-22.28Q128.95-21.01 126.67-20.7L126.67-20.7Q125.22-20.61 123.68-20.61L123.68-20.61Q120.53-20.75 120.53-22.41L120.53-22.41Q120.53-23.42 123.03-23.42L123.03-23.42 124.56-23.42Q125.61-23.42 126.05-29.61L126.05-29.61 126.05-30.26Q126.05-31.14 125.96-31.36L125.96-31.36Q125.66-31.36 122.11-31.84L122.11-31.84Q120.96-24.69 116.4-20.92L116.4-20.92Q115.26-20.04 113.77-20.04L113.77-20.04Q113.64-20.04 112.76-20.09 111.89-20.13 110.75-21.1L110.75-21.1Q111.05-20.48 112.32-19.87L112.32-19.87 112.32-20.13Q112.32-20.18 105.57-20.18L105.57-20.18 105.57-14.08 109.3-14.08Q111.84-14.08 111.84-12.59L111.84-12.59Q111.84-11.05 109.3-11.05L109.3-11.05 105.57-11.05 105.57-2.37Q108.29-1.32 114.43-1.32L114.43-1.32Q117.19-1.27 120.53-1.27L120.53-1.27Q124.96-1.27 130.39-1.36L130.39-1.36 130.83-1.36Q132.72-1.36 132.98-0.7L132.98-0.7 132.59 0.39Q131.84 2.11 129.25 2.11L129.25 2.11 114.47 2.11Q107.24 2.11 103.29 0.7L103.29 0.7Q98.77-0.96 97.81-2.54L97.81-2.54Q97.19 2.68 94.47 2.68ZM127.15-5L127.15-5 116.18-5Q114.3-5 113.42-5.88 112.54-6.75 112.54-7.59L112.54-7.59 112.54-15.44Q112.54-16.27 113.42-17.15 114.3-18.03 116.18-18.03L116.18-18.03 127.15-18.03Q129.04-18.03 129.91-17.15 130.79-16.27 130.79-15.44L130.79-15.44 130.79-7.59Q130.79-6.75 129.91-5.88 129.04-5 127.15-5ZM118.16-7.81L124.96-7.81Q125.22-7.81 125.22-9.12L125.22-9.12 125.22-13.9Q125.22-15.22 124.96-15.22L124.96-15.22 118.16-15.22Q117.89-15.22 117.89-13.9L117.89-13.9 117.89-9.12Q117.89-7.81 118.16-7.81L118.16-7.81ZM162.72-2.98L162.72-2.98Q159.96-2.98 159.96-4.69L159.96-4.69 159.96-10.35Q158.33-8.11 153.64-5.18L153.64-5.18Q152.54-4.56 151.54-4.56L151.54-4.56Q151.36-4.56 150.68-4.63 150-4.69 149.21-5.66L149.21-5.66Q148.77-6.23 148.77-6.54L148.77-6.54Q148.77-6.89 150.18-7.59L150.18-7.59Q154.82-10.22 158.51-15.18L158.51-15.18 154.08-15.18Q152.19-15.18 151.32-16.05 150.44-16.93 150.44-17.76L150.44-17.76 150.44-23.2Q150.44-24.04 151.32-24.91 152.19-25.79 154.08-25.79L154.08-25.79 159.96-25.79 159.96-29.43 151.36-29.43Q148.86-29.43 148.86-30.88L148.86-30.88Q148.86-32.32 151.36-32.32L151.36-32.32 159.96-32.32 159.96-34.78Q159.96-36.49 162.72-36.49L162.72-36.49Q165.48-36.49 165.48-34.78L165.48-34.78 165.48-32.32 174.82-32.32Q177.32-32.32 177.32-30.88L177.32-30.88Q177.32-29.43 174.82-29.43L174.82-29.43 165.48-29.43 165.48-25.79 171.93-25.79Q173.82-25.79 174.69-24.91 175.57-24.04 175.57-23.2L175.57-23.2 175.57-17.76Q175.57-16.93 174.69-16.05 173.82-15.18 171.93-15.18L171.93-15.18 166.54-15.18Q170.31-10.57 175.31-7.81L175.31-7.81Q176.8-7.06 176.8-6.71L176.8-6.71Q176.8-6.4 176.27-5.83L176.27-5.83Q175.26-4.65 173.86-4.61L173.86-4.61Q172.89-4.61 171.75-5.31L171.75-5.31Q167.41-8.11 165.48-10.44L165.48-10.44 165.48-4.69Q165.48-2.98 162.72-2.98ZM156.01-17.85L159.96-17.85 159.96-23.16 156.01-23.16Q155.75-23.16 155.75-21.84L155.75-21.84 155.75-19.17Q155.75-17.85 156.01-17.85L156.01-17.85ZM165.48-17.85L169.82-17.85Q170.09-17.85 170.09-19.17L170.09-19.17 170.09-21.84Q170.09-23.16 169.82-23.16L169.82-23.16 165.48-23.16 165.48-17.85ZM161.54 2.76L161.54 2.76Q156.89 2.76 154.08 2.24L154.08 2.24Q150.75 1.67 148.25 0.13L148.25 0.13 146.32-1.23Q144.87-2.32 144.78-2.32L144.78-2.32Q144.43-2.32 142.76-0.09L142.76-0.09Q141.36 2.02 139.25 2.02L139.25 2.02Q137.89 2.02 137.02 0.79L137.02 0.79Q136.71 0.39 136.71-0.04L136.71-0.04Q136.71-0.75 137.5-1.58L137.5-1.58Q140-4.17 142.06-5.04L142.06-5.04 142.06-17.15Q142.06-18.46 141.8-18.46L141.8-18.46 139.52-18.46Q136.75-18.46 136.75-20.22L136.75-20.22Q136.75-21.93 139.52-21.93L139.52-21.93 144.69-21.93Q146.32-21.93 147-21.25 147.68-20.57 147.68-20L147.68-20 147.68-4.74 148.99-3.86Q150.04-3.07 150.75-2.63L150.75-2.63Q153.64-0.75 161.67-0.75L161.67-0.75Q168.38-0.75 174.91-1.45L174.91-1.45Q175.66-1.54 176.23-1.54L176.23-1.54Q177.41-1.54 177.74-1.16 178.07-0.79 178.07-0.22L178.07-0.22Q178.07 0.04 177.98 0.39L177.98 0.39Q177.76 1.32 177.46 1.58L177.46 1.58Q176.4 2.76 161.54 2.76ZM144.61-26.62L144.61-26.62Q144.47-26.62 143.77-26.67 143.07-26.71 142.24-27.85L142.24-27.85Q141.01-29.56 138.46-32.28L138.46-32.28Q138.07-32.63 138.07-33.03L138.07-33.03Q138.07-33.46 138.73-33.95L138.73-33.95Q139.87-34.78 140.92-34.78L140.92-34.78Q142.11-34.78 143.16-33.73L143.16-33.73Q145.75-31.18 147.54-29.04L147.54-29.04Q147.89-28.64 147.89-28.55L147.89-28.55Q147.81-28.2 146.97-27.54L146.97-27.54Q145.75-26.62 144.61-26.62Z" transform="translate(-2.630000114440918, 36.540000915527344)"></path></g> <!----> <!----> <!----> <!----> <!----> <!----> <!----></g></g> <g data-gra="path-slogan" fill-rule="" class="tp-slogan iconsvg-slogansvg" fill="#fc0302" transform="translate(33.13500213623047,45.70000076293945)"><!----> <!----> <g transform="scale(1, 1)"><g transform="scale(1)"><path d="M3.09-7.59L0.19-7.59L0.19-8.58L7.13-8.58L7.13-7.59L4.22-7.59L4.22 0L3.09 0L3.09-7.59ZM8.34-8.58L9.52-8.58L9.52 0L8.34 0L8.34-8.58ZM17.16 0L16.31-2.48L12.84-2.48L11.95 0L10.78 0L14.02-8.58L15.33-8.58L18.42 0L17.16 0ZM14.58-7.31L13.22-3.52L15.89-3.52L14.63-7.31L14.58-7.31ZM20.86-8.58L25.17-1.64L25.17-8.58L26.30-8.58L26.30 0L24.98 0L20.63-6.94L20.58-6.94L20.58 0L19.45 0L19.45-8.58L20.86-8.58ZM27.38-1.92L27.38-2.77L28.45-2.77L28.45-2.16Q28.45-0.75 29.77-0.75L29.77-0.75Q31.13-0.75 31.13-2.25L31.13-2.25L31.13-8.58L32.30-8.58L32.30-2.30Q32.25 0.09 29.81 0.14L29.81 0.14Q27.52 0.09 27.38-1.92L27.38-1.92ZM34.27-8.58L35.44-8.58L35.44 0L34.27 0L34.27-8.58ZM38.81-8.58L43.13-1.64L43.13-8.58L44.25-8.58L44.25 0L42.94 0L38.58-6.94L38.53-6.94L38.53 0L37.41 0L37.41-8.58L38.81-8.58ZM55.64-6.09L55.64-6.09L54.56-6.09Q54.47-7.73 52.41-7.83L52.41-7.83Q50.48-7.78 50.48-6.33L50.48-6.33Q50.48-5.39 51.52-5.25L51.52-5.25L53.95-4.69Q55.88-4.22 55.88-2.34L55.88-2.34Q55.83 0.05 52.50 0.14L52.50 0.14Q50.67 0.14 49.92-0.61L49.92-0.61Q48.98-1.31 49.03-2.77L49.03-2.77L50.16-2.77Q50.20-0.80 52.50-0.75L52.50-0.75Q54.75-0.80 54.80-2.20L54.80-2.20Q54.98-3.38 52.92-3.75L52.92-3.75L51.14-4.13Q49.31-4.64 49.31-6.19L49.31-6.19Q49.45-8.72 52.31-8.81L52.31-8.81Q55.55-8.81 55.64-6.09ZM60.98-7.64L58.64-7.64L58.64-4.64L60.94-4.64Q62.72-4.64 62.72-6.19L62.72-6.19Q62.72-7.59 60.98-7.64L60.98-7.64ZM61.36-3.61L58.64-3.61L58.64 0L57.47 0L57.47-8.58L61.36-8.58Q63.80-8.48 63.89-6.19L63.89-6.19Q63.75-3.70 61.36-3.61L61.36-3.61ZM66.61-1.03L71.77-1.03L71.77 0L65.44 0L65.44-8.58L71.67-8.58L71.67-7.59L66.61-7.59L66.61-4.92L71.30-4.92L71.30-3.89L66.61-3.89L66.61-1.03ZM74.58-1.03L79.73-1.03L79.73 0L73.41 0L73.41-8.58L79.64-8.58L79.64-7.59L74.58-7.59L74.58-4.92L79.27-4.92L79.27-3.89L74.58-3.89L74.58-1.03ZM84.75 0L81.28 0L81.28-8.58L84.80-8.58Q88.27-8.39 88.41-4.41L88.41-4.41Q88.22-0.09 84.75 0L84.75 0ZM84.61-7.64L82.45-7.64L82.45-0.98L84.70-0.98Q87.14-1.13 87.23-4.31L87.23-4.31Q87.19-7.55 84.61-7.64L84.61-7.64ZM90.05-8.58L91.22-8.58L91.22 0L90.05 0L90.05-8.58ZM94.59-8.58L98.91-1.64L98.91-8.58L100.03-8.58L100.03 0L98.72 0L94.36-6.94L94.31-6.94L94.31 0L93.19 0L93.19-8.58L94.59-8.58ZM108.23-3.61L105.61-3.61L105.61-4.59L109.36-4.59L109.36 0L108.61 0L108.33-1.08Q107.34 0.09 105.52 0.14L105.52 0.14Q103.78 0.14 102.84-0.75L102.84-0.75Q101.44-2.06 101.48-4.36L101.48-4.36Q101.81-8.63 105.56-8.81L105.56-8.81Q108.75-8.63 109.22-6L109.22-6L108.09-6Q107.63-7.78 105.52-7.83L105.52-7.83Q102.84-7.64 102.70-4.31L102.70-4.31Q102.70-0.75 105.56-0.75L105.56-0.75Q106.59-0.75 107.34-1.31L107.34-1.31Q108.28-2.06 108.23-3.61L108.23-3.61Z" transform="translate(-0.1875, 8.8125)"></path></g></g></g></g></g><defs v-gra="od"></defs></svg>